<svg xmlns="http://www.w3.org/2000/svg" viewBox="0 0 10 10">
  <path fill="#f8f8f7" d="M-.3-.3h10.55v10.49H-.3z"/>
  <path fill="#d06692" d="m1.91 5.81-.35-.55L.73 4c-.09-.13-.17-.26-.25-.38C.4 3.5.34 3.37.3 3.23.25 3.1.23 2.94.23 2.78c0-.33.09-.59.26-.78.17-.19.43-.28.78-.28.25 0 .46.05.61.15.16.1.27.25.34.43s.11.39.11.63v.18h-.68v-.17c0-.12-.01-.22-.03-.32a.425.425 0 0 0-.12-.23c-.06-.06-.14-.09-.25-.09-.11 0-.2.04-.25.12-.05.08-.08.19-.08.34 0 .13.02.26.06.37.04.11.09.22.16.32.06.1.13.21.21.32l1 1.54.32.49h-.75Z"/>
  <path fill="#3a689b" d="M1.57 7.91V6.36h.54v.11h-.4v1.44h-.14Zm1.04.03c-.1 0-.18-.02-.24-.07s-.1-.11-.12-.2c-.02-.09-.03-.2-.03-.32v-.42c0-.13.01-.24.03-.32a.34.34 0 0 1 .12-.2c.06-.04.14-.07.24-.07s.18.02.24.07c.06.04.1.11.12.2.02.09.03.2.03.33v.42c0 .13-.01.24-.03.32-.02.09-.06.15-.12.2s-.14.07-.24.07Zm0-.11c.08 0 .13-.02.17-.06.04-.04.06-.09.07-.16s.01-.16.01-.25v-.43c0-.1 0-.19-.01-.26 0-.07-.03-.13-.07-.16-.04-.04-.09-.06-.17-.06s-.13.02-.16.06c-.03.04-.06.09-.07.16 0 .07-.01.16-.01.26v.43c0 .1 0 .18.01.25s.03.13.07.16c.03.04.09.06.16.06Zm.44.44v-.46s.08-.06.11-.1c.03-.04.06-.1.08-.17.02-.07.04-.17.06-.29.02-.12.03-.26.04-.44l.03-.46h.61V7.8h.14v.46h-.11V7.9h-.84v.36h-.13Zm.16-.46h.64V6.47h-.36l-.03.38c-.01.16-.03.29-.04.4-.01.11-.03.2-.04.27s-.04.13-.06.18c-.03.04-.06.08-.1.11Zm1.78.13c-.12 0-.2-.03-.26-.08s-.09-.13-.11-.22c-.02-.09-.03-.19-.03-.31v-.36c0-.15.01-.27.03-.37.02-.09.06-.16.12-.2.06-.04.14-.06.24-.06.11 0 .19.02.24.07.05.04.09.1.11.18.02.08.03.16.03.26v.06h-.13v-.06c0-.11 0-.19-.03-.24-.02-.06-.04-.1-.08-.12a.29.29 0 0 0-.14-.03c-.07 0-.12.02-.16.05-.04.03-.06.09-.07.16-.01.07-.02.17-.02.3v.4c0 .17.02.29.05.36.03.08.1.11.2.11.07 0 .12-.02.16-.05.03-.03.06-.08.07-.14.01-.06.02-.15.02-.25v-.06h.13v.06c0 .1 0 .2-.02.28s-.05.15-.1.2c-.05.05-.14.07-.25.07Zm.93 0c-.08 0-.15-.02-.21-.05s-.1-.09-.14-.18c-.03-.09-.05-.21-.05-.37v-.41c0-.16.02-.29.05-.37.03-.08.08-.14.14-.17.06-.03.13-.05.21-.05.1 0 .17.02.23.06.06.04.09.11.12.2.02.09.03.21.03.36v.15h-.64v.25c0 .12 0 .22.03.29.02.07.04.12.08.15s.09.04.14.04c.04 0 .08 0 .11-.02s.07-.04.09-.09.04-.12.04-.22v-.12h.14v.1c0 .13-.03.24-.08.32-.05.08-.16.12-.3.12Zm-.25-.92h.5V6.9c0-.09 0-.17-.01-.24 0-.07-.03-.12-.07-.16-.03-.04-.09-.05-.16-.05-.06 0-.11.01-.14.04-.04.02-.07.07-.08.13-.02.07-.03.16-.03.28v.12Zm.81.89V6.36h.12l.37 1.14.37-1.14h.12v1.55h-.11V6.72L7 7.75h-.05l-.34-1.02v1.18h-.13Zm1.2 0V6.36h.14v.62h.12c.11 0 .19.01.25.04s.11.06.15.11c.03.04.06.09.07.15.01.06.02.11.02.17s0 .11-.02.17c-.01.05-.04.1-.07.15a.45.45 0 0 1-.15.11c-.07.03-.15.04-.26.04h-.26Zm.14-.1h.12c.11 0 .18-.02.24-.05.05-.03.09-.08.1-.13.02-.05.03-.11.03-.18s0-.12-.03-.18a.28.28 0 0 0-.1-.14c-.05-.04-.13-.05-.23-.05h-.12v.74Zm.8.1V6.36h.12v1.29l.55-1.29h.12v1.55h-.12V6.64l-.54 1.27h-.12Zm-6.71-2.1-.29-.46 1.01-1.57c.07-.11.14-.22.21-.32.06-.1.12-.21.16-.32.04-.11.06-.23.06-.37 0-.15-.03-.26-.08-.34s-.14-.12-.25-.12c-.11 0-.19.03-.25.09s-.1.14-.12.23c-.02.1-.03.2-.03.32v.17h-.68v-.18c0-.24.04-.45.11-.63s.19-.32.34-.43c.16-.1.36-.15.61-.15.35 0 .6.09.78.28.17.19.26.45.26.78 0 .17-.02.32-.07.45s-.11.26-.18.39-.16.25-.25.38l-.83 1.26h1.23v.55H1.91Z"/>
  <path fill="#3a689b" d="M4.74 5.87c-.24 0-.43-.05-.59-.15a1 1 0 0 1-.35-.41c-.08-.18-.12-.38-.12-.61V2.91c0-.24.04-.44.11-.62s.19-.32.34-.42c.15-.1.35-.15.6-.15s.44.05.6.15c.15.1.27.24.34.42s.11.38.11.62V4.7c0 .23-.04.43-.12.61a.88.88 0 0 1-.35.41c-.15.1-.35.15-.59.15Zm0-.59c.1 0 .18-.03.23-.09.05-.06.08-.14.1-.23.02-.09.02-.18.02-.26V2.93c0-.09 0-.19-.02-.28a.44.44 0 0 0-.1-.23c-.05-.06-.13-.09-.23-.09s-.18.03-.23.09c-.05.06-.08.14-.1.23-.01.09-.02.18-.02.28V4.7c0 .09 0 .17.03.26.02.09.05.17.1.23s.12.09.22.09Z"/>
  <path fill="#3a689b" d="M5.74 5.81v-.49l1-1.54c.07-.11.14-.22.21-.32.06-.1.12-.21.16-.32.04-.11.06-.23.06-.37 0-.15-.03-.26-.08-.34s-.14-.12-.25-.12c-.11 0-.19.03-.25.09s-.1.14-.12.23c-.02.1-.03.2-.03.32v.17h-.68v-.18c0-.24.04-.45.11-.63s.19-.32.34-.43c.16-.1.36-.15.61-.15.35 0 .6.09.78.28.17.19.26.45.26.78 0 .17-.02.32-.07.45s-.11.26-.18.39-.16.25-.25.38l-.83 1.26h1.23v.55H5.75Z"/>
  <path fill="#3a689b" d="M8.76 5.81v-.99H7.55v-.59L8.6 1.77h.8v2.5h.36v.55H9.4v.99h-.65Zm-.63-1.54h.63V2.51l-.63 1.76Z"/>
</svg>