<svg xmlns="http://www.w3.org/2000/svg" viewBox="0 210.5 1440 379"><path d="M120.802 405.045c-1.286 4.503-9.006 26.375-13.51 37.954-.643 1.93 2.574 19.297 10.293 19.297 6.434 0 8.363-9.65 9.006-10.292h1.932c0 1.93-1.93 17.368-10.293 18.012-7.077.644-10.936-4.503-14.153-18.654 0 0-7.72 19.943-27.02 18.654-17.368-1.286-27.66-13.51-27.66-33.45 0-23.16 16.08-35.382 29.59-34.096 15.44.646 21.23 17.37 23.804 23.804 0 0 5.79-17.37 6.434-21.23h11.578zm-42.458 60.47c14.796 1.285 21.23-31.522 21.23-31.522-1.287-7.076-1.93-7.076-2.574-8.363-3.858-12.223-11.58-19.298-18.655-19.298-16.725.644-16.725 30.233-16.725 30.233 0 2.575-1.287 27.02 16.724 28.95zm235.445-8.363c.642-1.287 1.93 10.293 14.794 12.865 8.362 1.288 14.152-1.93 18.655-7.077 3.858-5.145 7.718-12.864 7.718-23.8.644-9.008-2.572-19.3-7.72-25.09-5.79-6.433-13.51-10.935-26.374-10.935v1.93s21.87-.645 22.516 34.094c0 31.52-14.797 27.017-14.797 27.017s-10.936-.643-12.865-16.725c1.286-3.86 3.86-10.292 3.86-18.01.643-11.58-3.218-17.37-5.147-18.014-3.858.644-6.432 7.077-5.788 18.655.643 9.006 3.86 17.368 3.86 17.368-.645 3.218-3.86 13.51-10.937 16.083-1.93 1.286-10.293 2.574-14.153-8.362-3.217-9.648-2.572-18.653-1.93-27.018 2.573-24.445 21.87-25.088 21.87-25.088v-1.93c-5.145 0-21.87.644-30.233 16.08-2.574 5.147-4.503 9.65-4.503 19.944 0 7.076 1.93 19.3 10.936 26.374 7.076 5.79 14.796 5.79 18.012 3.86 7.72-3.215 11.58-10.933 12.224-12.22zm-3.22 70.12c-1.93 0-8.36 1.285-8.36 1.285s.643 3.86.643 5.146c.644 1.286 0 1.93 0 2.573-.644 0 0 0-.644 1.286-3.86 7.72-23.16 22.516-48.248 23.158-25.73 0-42.457-14.152-46.316-25.732V370.95H264.9l3.858 2.573h3.217V359.37h-3.217l-3.86 2.573h-57.252v-48.246c10.936-1.287 22.516-9.006 22.516-25.73 0-16.082-10.293-25.088-22.516-27.662v-27.66l1.93-4.505v-2.572h-14.154v2.572l1.932 4.504v27.66c-12.223 1.93-22.515 10.937-22.515 27.662 0 16.082 10.29 24.444 22.514 26.375v47.604h-56.61l-4.502-2.573h-3.217v14.153h3.217l4.503-2.573h56.61v164.04c-4.504 10.936-14.797 26.374-46.96 26.374-22.516 0-42.46-18.01-46.96-23.802-.644-.643-1.287-.643-1.287-.643-.644-.646 0-1.933 0-2.575 0-1.285 1.286-5.79 1.286-5.79s-5.146-.643-7.076-.643c-1.93-.644-9.65-1.286-9.65-1.286v16.084s4.503-.645 5.79-.645c1.286 0 2.572.645 3.218 1.287 10.29 11.578 28.304 25.73 54.68 26.374 23.8.645 46.315-10.937 52.106-23.802 9.005 14.152 30.233 23.802 52.105 23.158 26.374 0 49.533-17.368 55.322-27.02 1.286-.643 1.93-1.285 3.216-1.285l5.146.643s.644-5.79.644-7.076v-8.362s-6.435.645-8.365 1.29zM207.646 268.025c8.362 1.93 15.438 7.72 15.438 19.942 0 11.58-7.076 16.725-15.438 18.654v-38.596zm-25.73 19.94c0-12.22 7.075-18.01 15.437-19.94v38.596c-8.362-2.574-15.438-6.433-15.438-18.655zM531.6 468.396h25.76l6.9 52.9 5.98 7.82c9.2 4.6 23.92 10.58 50.6 10.58 24.38 0 43.242-6.44 54.742-17.48 7.36-6.9 15.64-18.86 15.64-39.1 0-23-10.58-32.66-22.08-40.48-14.72-9.66-31.74-16.562-57.5-27.6-24.84-10.58-47.842-21.162-61.642-39.103-11.04-14.26-13.34-28.06-13.34-40.94 0-34.96 15.64-56.58 33.12-69.92 22.54-17.02 50.14-20.7 74.06-20.7 18.4 0 46.462 2.76 77.282 12.88v71.3h-25.76l-5.06-43.7-6.9-7.82c-10.58-5.52-23-9.66-41.4-9.66-17.94 0-33.582 3.68-46.92 16.56-11.042 10.58-15.642 23.92-15.642 38.64 0 17.48 6.9 30.82 24.38 41.4 11.04 6.9 30.36 15.18 55.66 25.76 23.46 10.12 48.302 21.16 61.642 39.102 10.58 14.26 12.88 30.36 12.88 41.4 0 33.12-15.18 53.36-27.6 64.4-24.38 21.62-61.64 29.44-94.76 29.44-40.48 0-67.162-9.66-80.042-14.72v-80.96zM778.62 539.697l26.22-2.3 7.82-6.44V277.493l-7.82-6.44-29.9-2.3v-18.86h220.804v71.76h-25.76l-6.44-43.7-6.44-6.9H854.06v120.982h75.44l6.44-6.44 5.06-33.58h21.162v101.662h-21.16l-5.06-34.04-6.44-6.44h-75.44v117.76l7.818 6.44 32.66 2.3v18.86H778.62v-18.86zM1027.015 539.697l29.44-2.3 7.82-6.44V277.493l-7.82-6.44-29.44-2.3v-18.86h115.92v18.86l-29.44 2.3-7.818 6.44v253.463l7.82 6.44 29.44 2.3v18.86h-115.922v-18.86z"/></svg>
