<svg xmlns="http://www.w3.org/2000/svg" xmlns:xlink="http://www.w3.org/1999/xlink" viewBox="19.66 49.699 1954 558">
<g>
	<path d="M1033.848,531.699c-37.2,13.2-79.201,21-118.801,21c-48.602,0-106.201-12-153.001-62.399
		c-18.602-19.802-55.201-67.802-55.201-148.803c0-73.801,30.6-125.4,65.4-156.002c28.2-25.199,75.602-49.8,148.802-49.8
		c51,0,90.001,12,112.801,20.399v92.4h-33.601l-9-54.601l-7.801-10.8c-18-9-39-15.602-66.601-15.602
		c-113.401,0-147.001,91.201-147.001,174.603c0,56.399,16.2,99.001,37.8,126.002c19.2,24,54.601,52.8,117.001,52.8
		c21.6,0,38.4-3.6,52.8-7.8l9.602-9.601l13.2-66.602h33.601V531.699z"/>
	<path d="M1361.441,125.496v24.6l-38.4,3l-10.199,8.399v28.2h13.199c27,0,76.201,3,114.002,31.801
		c16.8,12.601,51.601,45.602,51.601,111.602c0,47.4-18,81.601-48,105.602c-16.201,13.2-52.801,36-116.401,36h-14.399V509.5
		l10.199,8.398l38.4,3V545.5H1210.24V520.9l38.4-3l10.199-8.398v-34.802h-14.4c-63.6,0-100.2-22.8-116.4-36
		c-30-24.001-48-58.201-48-105.602c0-66,34.801-99.001,51.601-111.602c37.801-28.801,87.001-31.801,114.002-31.801h13.198v-28.2
		l-10.198-8.399l-38.4-3v-24.6H1361.441z M1258.839,217.297h-12c-93.602,0-112.802,61.199-112.802,115.801
		c0,53.399,22.802,114.001,112.802,114.001h12V217.297z M1312.84,447.099h12c90.001,0,112.802-60.602,112.802-114.001
		c0-35.4-11.4-70.2-34.801-90.602c-10.802-9.601-34.802-25.199-78.001-25.199h-12V447.099z"/>
	<path d="M1677.037,142.896v24.601l-37.199,3l-10.2,8.4v271.803l213.603-259.803v-12l-10.199-8.4l-37.2-3v-24.601h145.801v24.601
		l-34.2,3l-10.199,8.4V509.5l10.199,8.398l34.2,3V545.5H1795.84V520.9l37.199-3l10.2-8.398V231.698L1629.637,491.5v18l10.199,8.398
		l37.2,3V545.5h-145.802V520.9l34.201-3l10.198-8.398V178.897l-10.198-8.4l-34.201-3v-24.601H1677.037z"/>
</g>
<path d="M156.904,335.954c-1.746,6.11-12.221,35.789-18.331,51.501c-0.874,2.619,3.491,26.187,13.966,26.187
	c8.729,0,11.348-13.094,12.22-13.966h2.619c0,2.619-2.619,23.567-13.966,24.441c-9.602,0.873-14.838-6.11-19.204-25.313
	c0,0-10.475,27.062-36.663,25.313c-23.569-1.746-37.535-18.331-37.535-45.392c0-31.425,21.822-48.009,40.154-46.264
	c20.949,0.874,28.806,23.569,32.298,32.299c0,0,7.856-23.57,8.729-28.807H156.904L156.904,335.954z M99.291,418.007
	c20.078,1.745,28.807-42.772,28.807-42.772c-1.746-9.602-2.618-9.602-3.492-11.348c-5.236-16.586-15.712-26.187-25.314-26.187
	c-22.695,0.873-22.695,41.025-22.695,41.025C76.596,382.218,74.85,415.389,99.291,418.007L99.291,418.007z M418.776,406.659
	c0.873-1.746,2.619,13.967,20.076,17.458c11.348,1.747,19.204-2.618,25.314-9.603c5.237-6.982,10.475-17.457,10.475-32.297
	c0.873-12.221-3.491-26.187-10.475-34.044c-7.857-8.729-18.331-14.838-35.789-14.838c0-0.874,0,2.618,0,2.618
	s29.678-0.874,30.552,46.264c0,42.772-20.078,36.662-20.078,36.662s-14.839-0.873-17.458-22.695
	c1.746-5.237,5.237-13.966,5.237-24.44c0.874-15.713-4.365-23.569-6.983-24.442c-5.237,0.873-8.729,9.603-7.856,25.314
	c0.873,12.221,5.237,23.568,5.237,23.568c-0.873,4.365-5.237,18.331-14.839,21.823c-2.619,1.745-13.967,3.492-19.205-11.348
	c-4.365-13.094-3.49-25.313-2.618-36.662c3.492-33.171,29.678-34.043,29.678-34.043v-2.618c-6.983,0-29.678,0.873-41.027,21.821
	c-3.491,6.982-6.109,13.095-6.109,27.061c0,9.602,2.619,26.188,14.839,35.789c9.602,7.856,20.077,7.856,24.441,5.236
	C412.665,418.88,417.903,408.406,418.776,406.659L418.776,406.659z M414.41,501.807c-2.618,0-11.347,1.745-11.347,1.745
	s0.873,5.238,0.873,6.983c0.874,1.745,0,2.618,0,3.491c-0.873,0,0,0-0.873,1.746c-5.237,10.475-31.425,30.552-65.469,31.424
	c-34.916,0-57.611-19.204-62.849-34.917v-222.59h77.689l5.238,3.492h4.365v-19.204h-4.365l-5.238,3.491h-77.689V212
	c14.839-1.746,30.553-12.22,30.553-34.916c0-21.822-13.967-34.042-30.553-37.535v-37.535l2.619-6.111v-3.491h-6.111h-7.856h-5.238
	v3.491l2.619,6.111v37.535c-16.585,2.619-30.551,14.839-30.551,37.535c0,21.822,13.966,33.17,30.551,35.789v64.594h-76.815
	l-6.11-3.491h-4.365v19.204h4.365l6.11-3.492h76.815V512.28c-6.11,14.84-20.076,35.789-63.722,35.789
	c-30.551,0-57.612-24.44-63.722-32.297c-0.872-0.873-1.745-0.873-1.745-0.873c-0.873-0.874,0-2.62,0-3.493
	c0-1.743,1.745-7.855,1.745-7.855s-6.983-0.873-9.602-0.873c-2.619-0.873-13.094-1.745-13.094-1.745s0,9.603,0,12.22
	c0,1.747,0,9.604,0,9.604s6.11-0.874,7.857-0.874c1.745,0,3.49,0.874,4.365,1.746c13.965,15.712,38.407,34.917,74.196,35.789
	c32.298,0.874,62.849-14.84,70.707-32.298c12.22,19.204,41.026,32.298,70.705,31.425c35.788,0,67.213-23.568,75.069-36.663
	c1.746-0.873,2.618-1.746,4.365-1.746l6.983,0.873c0,0,0.873-7.856,0.873-9.602c0-2.618,0-11.348,0-11.348
	S417.029,500.934,414.41,501.807L414.41,501.807z M274.745,150.026c11.348,2.618,20.95,10.475,20.95,27.06
	c0,15.713-9.602,22.695-20.95,25.313V150.026z M239.83,177.085c0-16.584,9.601-24.441,20.949-27.06v52.373
	C249.431,198.907,239.83,193.67,239.83,177.085z"/>
</svg>
