<svg xmlns="http://www.w3.org/2000/svg" width="235.215" height="129.119" viewBox="0 0 235.215 129.119"><path fill="#231F20" d="M102.053 53.303h2.375l-6.125-14.5h-2.25l-6.125 14.5h2.313l1.28-3.188h7.25l1.29 3.188zm-7.838-4.938l2.9-7.25 2.938 7.25h-5.838zm50.775-3c0-4.25-3.125-6.813-7.125-6.813s-7.125 2.563-7.125 6.813c0 2.625 1.25 5 3.625 6.313l-3.313-.25v1.875h5.813v-1.688c-2.313-1.313-3.938-3.563-3.938-6.25 0-2.75 1.875-4.937 4.938-4.937s4.938 2.187 4.938 4.937c0 2.688-1.625 4.938-3.938 6.25v1.688h5.813v-1.875l-3.313.25c2.375-1.313 3.625-3.687 3.625-6.313zm-10.062 15.938l.75.75 1.756-.11c-1.203 1.003-2.088 1.894-3.067 2.548-1.625 1.07-3.625 1.88-6.313 1.88-4.688 0-7.625-2.25-9.375-3.93V30.49h10.37l1.37 1.376h1.25v-1.25l-1.07-1.063 1.06-1.062v-1.25h-1.25l-1.38 1.38h-10.37v-6.66c2.62-.47 4.62-2.64 4.62-5.4s-2-4.94-4.63-5.4v-6.6l1.25-1.25V2.06h-1.25l-1.06 1.063-1.06-1.063h-1.25v1.25l1.25 1.25v6.593c-2.63.468-4.63 2.644-4.63 5.406 0 2.76 2 4.93 4.62 5.4v6.65h-10.37l-1.38-1.37h-1.25v1.25l1.06 1.06-1.06 1.06v1.25h1.25l1.38-1.38h10.37v31.94c-1.75 1.68-4.69 3.93-9.38 3.93-2.69 0-4.69-.81-6.31-1.87-.98-.65-1.87-1.54-3.07-2.55l1.75.11.75-.75-.75-.75H95.1v4.37l.813.81.813-.81-.106-1.69c1.214 1.44 2.21 2.23 3.6 3.12 1.813 1.12 4.063 1.87 6.938 1.87 2.994 0 6.53-.9 9.373-3.46v2.27l-1.25 1.25v1.25h1.25l1.07-1.07 1.06 1.06h1.25V68.3l-1.25-1.25v-2.27c2.85 2.555 6.38 3.453 9.38 3.453 2.88 0 5.13-.75 6.94-1.876 1.39-.89 2.39-1.682 3.6-3.125l-.1 1.687.81.81.82-.81v-4.38h-4.43l-.75.75zm-16.25-48.553c1.7.44 2.875 1.925 2.875 3.803 0 1.88-1.176 3.364-2.875 3.804V12.75zm-2.125 7.606c-1.698-.44-2.875-1.925-2.875-3.804 0-1.878 1.177-3.364 2.875-3.803v7.6zM64.03 108.614c-.323-.952-.743-1.624-1.892-1.64v-.083c1.652-.09 2.367-.89 2.367-2.01 0-1.22-.827-2.1-2.773-2.1h-4.707v.14c.21.21.42.49.42 2.16v3.11c0 1.67-.21 1.95-.42 2.16v.14H59.7v-.14c-.28-.21-.518-.36-.518-2.1v-.89h1.597c.99 0 1.24.45 1.44 1.17.18.73.28 1.33.35 1.98h2.28v-.14c-.27-.24-.41-.46-.67-1.26l-.16-.46zm-2.774-2.255h-2.073v-2.61h2.073c.925 0 1.43.43 1.43 1.3s-.505 1.3-1.43 1.3zm8.262-15.38c0-3.92-6.29-2.29-6.29-4.82 0-.89.772-1.39 1.905-1.39 1.556 0 2.298.81 2.312 2.01l1.695-.2c-.028-1.71-1.513-2.94-4.007-2.94-2.27 0-3.57 1.16-3.57 2.78 0 4.15 6.288 2.39 6.288 4.93 0 1.01-.88 1.39-2.39 1.39-1.87 0-2.67-.8-2.8-2.5l-1.72.18c.19 2.37 1.95 3.43 4.53 3.43 2.74-.01 4.07-1.24 4.07-2.91zm-2.568 11.93c.21.21.42.49.42 2.16v3.11c0 1.66-.21 1.94-.42 2.15v.14h2.58v-.14c-.21-.21-.42-.49-.42-2.16v-3.11c0-1.67.21-1.95.42-2.16v-.14h-2.58v.14zm6.738 1.65c0-.66.574-.95 1.513-.95 1.12 0 1.7.49 1.77 1.43l1.53-.19c-.01-1.36-1.27-2.3-3.29-2.3-1.99 0-3.08.93-3.08 2.29 0 3.26 5.13 1.94 5.13 3.77 0 .81-.79 1-1.82 1-1.27 0-2-.42-2.21-1.8l-1.58.18c.31 2 1.74 2.66 3.8 2.66 2.31 0 3.41-1 3.41-2.39 0-3.11-5.14-1.84-5.14-3.74zm-21.894-1.66c.21.21.42.49.42 2.16v.97h-3.57v-.97c0-1.67.21-1.95.42-2.16v-.14h-2.578v.14c.21.21.42.49.42 2.15v3.11c0 1.66-.21 1.94-.42 2.15v.14h2.577v-.14c-.21-.21-.42-.49-.42-2.16V107h3.573v1.165c0 1.67-.21 1.95-.42 2.16v.14h2.577v-.14c-.21-.21-.42-.49-.42-2.16v-3.11c0-1.667.21-1.947.42-2.16v-.14h-2.578v.14zM82.03 92.8c0-.77-.448-1.08-1.205-1.08-.756 0-1.204.31-1.204 1.08s.45 1.08 1.21 1.08 1.21-.31 1.21-1.08zm-8.05-5.85v4.424c0 1.67-.21 1.95-.42 2.16v.14h2.577v-.14c-.21-.21-.42-.49-.42-2.16v-4.42h.14c.854 0 1.892.14 2.647.362h.14V85.97h-7.592v1.345h.14c.757-.226 1.794-.366 2.648-.366h.14zm94.066 5.88c-1.274 0-2.003-.42-2.213-1.792l-1.583.18c.31 2 1.737 2.66 3.796 2.66 2.312 0 3.404-.993 3.404-2.38 0-3.11-5.14-1.835-5.14-3.74 0-.66.573-.953 1.512-.953 1.12 0 1.695.49 1.765 1.43l1.527-.183c-.015-1.355-1.275-2.294-3.292-2.294-1.99 0-3.082.937-3.082 2.296 0 3.264 5.127 1.95 5.127 3.77 0 .81-.798 1.006-1.82 1.006zm-31.92.7c-.28-.21-.52-.363-.52-2.1v-.896h1.598c.995 0 1.247.45 1.443 1.163.182.73.28 1.33.35 1.975h2.283v-.14c-.266-.238-.406-.46-.672-1.26l-.154-.464c-.322-.95-.742-1.62-1.89-1.64v-.08c1.65-.095 2.366-.892 2.366-2.014 0-1.22-.827-2.1-2.773-2.1h-4.707v.14c.21.21.42.49.42 2.154v3.11c0 1.667-.21 1.946-.42 2.157v.14h2.676v-.136zm-.52-6.582h2.074c.925 0 1.43.434 1.43 1.3s-.505 1.3-1.43 1.3h-2.073v-2.6zm26.433-1.6c0 .757-.44 1.3-1.25 1.44v.405c1.57-.24 2.27-1.08 2.27-2.2 0-.91-.35-1.345-1.24-1.345-.76 0-1.11.29-1.11.85 0 .62.36.845 1.31.845zM80.2 117.61c.21.21.42.49.42 2.157v5.21c0 1.663-.21 1.942-.42 2.153v.14h2.66v-.14c-.21-.21-.42-.49-.42-2.157v-5.21c0-1.67.21-1.948.42-2.16v-.14H80.2v.14zm45.087-24.074c-.113-.168-.057-.63.266-1.598H129c.352.967.394 1.43.295 1.598v.14h2.55v-.14c-.364-.35-.603-.603-1.29-2.2l-2.31-5.448h-1.61l-2.144 5.45c-.58 1.483-.84 1.89-1.23 2.198v.14h2.03v-.14zm1.344-4.455c.26-.67.47-1.17.59-1.83h.09c.09.66.34 1.29.56 1.84l.79 1.96h-2.76l.74-1.96zm-34.7 4.46c-.28-.28-.52-.56-.52-2.16v-1.34h2.97c2.6 0 3.77-1.27 3.77-3.08s-1.17-3.08-3.77-3.08h-5.21v.14c.21.21.42.49.42 2.16v5.21c0 1.67-.21 1.95-.42 2.16v.14h2.76v-.14zM91.41 85h2.52c1.52 0 2.18.66 2.18 1.96s-.66 1.963-2.17 1.963h-2.53v-3.93zm.94 17.92v-.14h-2.58v.14c.21.21.42.49.42 2.16v3.11c0 1.67-.21 1.95-.42 2.16v.14h2.58v-.14c-.21-.21-.42-.49-.42-2.157v-3.11c0-1.665.21-1.945.42-2.156zm-52.47 6.655c-2.21 0-2.97-1.415-2.97-3.992s.8-3.99 2.8-3.99c1.67 0 2.26 1.093 2.62 2.647l1.88-.756c-.61-1.92-2.34-3.01-4.54-3.01-2.91 0-4.87 2.15-4.87 5.118s1.96 5.114 4.948 5.114c2.49 0 3.906-1.29 4.65-3l-1.514-.7c-.42 1.33-1.246 2.58-2.997 2.58zm84.1-9.105c-3.22 0-5.08 2.283-5.08 5.113s1.867 5.114 5.09 5.114 5.084-2.283 5.084-5.113-1.863-5.112-5.084-5.112zm0 9.105c-2.38 0-2.97-1.725-2.97-3.994s.59-3.99 2.97-3.99 2.97 1.73 2.97 4-.59 3.99-2.97 3.99zm26.15-17.236h-.14c-1.39.29-2.27.36-4.03.36h-.42v-2.48h.14c.956 0 2.1.01 2.89.31h.14v-1.6h-.14c-.786.29-1.935.3-2.888.3h-.14v-2.28h.14c1.766 0 2.647.07 4.034.36h.14v-1.35h-6.47v.14c.21.21.42.49.42 2.15v3.11c0 1.66-.21 1.94-.42 2.15v.14h6.75v-1.34zm-17.42 27.38c.257.21.51.49.51 2.16v2.31c0 1.45-.366 2.25-1.88 2.25-1.5 0-1.86-.8-1.86-2.26v-2.31c0-1.67.21-1.95.42-2.16v-.14h-2.58v.14c.21.21.42.49.42 2.15v2.38c0 2.16 1.233 3.24 3.404 3.24 2.186 0 3.418-1.08 3.418-3.24v-2.38c0-1.67.21-1.95.42-2.16v-.14h-2.27v.14zm16 6.58h-.42v-2.48h.14c.957 0 2.1.01 2.89.31h.14v-1.6h-.14c-.782.29-1.93.31-2.884.31h-.14v-2.29h.14c1.766 0 2.647.07 4.034.36h.14v-1.35h-6.47v.14c.21.21.42.49.42 2.16v3.11c0 1.66-.21 1.94-.42 2.15v.14h6.75v-1.35h-.14c-1.388.29-2.27.36-4.036.36zm-9.44-15.82v-.14c-.26-.24-.4-.46-.67-1.26l-.15-.47c-.324-.96-.744-1.63-1.893-1.64v-.09c1.653-.1 2.368-.89 2.368-2.02 0-1.22-.826-2.11-2.772-2.11h-4.703v.14c.21.21.42.49.42 2.15v3.11c0 1.66-.21 1.94-.42 2.15v.14h2.676v-.14c-.28-.21-.516-.36-.516-2.1v-.9h1.596c.992 0 1.244.45 1.44 1.16.182.73.28 1.33.35 1.972h2.283zm-3.6-4.12h-2.07v-2.61h2.076c.925 0 1.43.43 1.43 1.3s-.505 1.3-1.43 1.3zm1.06 14.56h.14c.755-.23 1.792-.37 2.646-.37h.14v4.42c0 1.67-.21 1.95-.42 2.16v.14h2.577v-.14c-.21-.21-.42-.49-.42-2.16v-4.43h.14c.854 0 1.89.14 2.647.36h.142v-1.35h-7.595v1.35zm18.515-18.01c.21.21.42.49.42 2.16v.97h-3.57v-.97c0-1.67.21-1.95.42-2.16v-.14h-2.58v.14c.21.21.42.49.42 2.16v3.11c0 1.67-.21 1.95-.42 2.16v.14h2.58v-.14c-.21-.21-.42-.49-.42-2.16v-1.16h3.57v1.16c0 1.66-.21 1.94-.42 2.15v.14h2.577v-.14c-.21-.21-.42-.49-.42-2.16v-3.11c0-1.67.21-1.95.42-2.16v-.14h-2.58v.14zm-10.05.84h.14c.853 0 1.89.14 2.646.36h.14v-1.34h-7.59v1.34h.14c.76-.22 1.8-.36 2.65-.36h.14v4.43c0 1.67-.21 1.95-.42 2.16v.14h2.58v-.14c-.21-.21-.42-.49-.42-2.16v-4.43zm52.038 5.35l-2.13-2.75 1.696-2.22c.44-.59.63-.86 1.12-1.24v-.14h-1.97v.14c0 .22-.17.6-.48 1.01l-.49.66c-.18.25-.37.5-.56.8h-.06c-.19-.3-.37-.55-.56-.8l-.49-.66c-.31-.41-.48-.79-.48-1.01v-.14h-2.61v.14c.48.38.67.64 1.12 1.23l2.03 2.6-1.85 2.35c-.46.57-.63.85-1.11 1.23v.14h1.96v-.16c0-.21.2-.63.52-1.05l.53-.72c.19-.27.4-.52.6-.84h.07c.19.32.4.57.59.84l.53.71c.32.42.52.84.52 1.05v.15h2.6v-.14c-.49-.38-.69-.64-1.138-1.23zm-12.49-6.54c-2.633 0-4.103 1.82-4.103 4.06s1.47 4.06 4.1 4.06 4.104-1.83 4.104-4.07-1.47-4.07-4.104-4.07zm0 7.07c-1.764 0-2.143-1.25-2.143-3.01 0-1.77.38-3.01 2.14-3.01s2.144 1.24 2.144 3.01c0 1.76-.38 3.01-2.144 3.01zm-10.555-6.86h-3.402v.14c.21.21.42.49.42 2.16v3.11c0 1.67-.21 1.95-.42 2.16v.14h3.404c2.787 0 4.356-1.35 4.356-3.85s-1.57-3.86-4.356-3.86zm0 6.72h-1.245v-5.75h1.25c1.763 0 2.393.99 2.393 2.87s-.63 2.87-2.395 2.87zM151.53 87.32h.14c.756-.222 1.793-.362 2.647-.362h.14v4.426c0 1.668-.21 1.947-.42 2.158v.14h2.58v-.14c-.21-.21-.42-.49-.42-2.156V86.96h.14c.853 0 1.89.14 2.646.364h.14v-1.35h-7.592v1.346zm12.77 15.247c-2.634 0-4.104 1.82-4.104 4.064s1.47 4.07 4.1 4.07 4.105-1.82 4.105-4.07-1.47-4.06-4.1-4.06zm0 7.076c-1.765 0-2.144-1.247-2.144-3.012s.38-3.01 2.14-3.01 2.144 1.25 2.144 3.01c0 1.77-.378 3.02-2.143 3.02zm-60.195 11.28h.14c.756-.224 1.793-.364 2.647-.364h.14v4.42c0 1.67-.21 1.95-.42 2.16v.14h2.576v-.14c-.21-.21-.42-.49-.42-2.16v-4.43h.14c.854 0 1.892.14 2.647.36h.14v-1.35h-7.59v1.34zm-1.56-30.7h3.57v1.162c0 1.668-.21 1.947-.42 2.158v.14h2.58v-.14c-.213-.21-.423-.49-.423-2.158v-3.11c0-1.665.21-1.946.42-2.155v-.14h-2.578v.14c.21.21.42.49.42 2.154v.97h-3.57v-.966c0-1.666.21-1.947.42-2.156v-.14h-2.578v.14c.21.21.42.49.42 2.154v3.11c0 1.668-.21 1.947-.42 2.158v.14h2.58v-.14c-.21-.21-.42-.49-.42-2.157v-1.17zm-5.117 31.148c0-.65.577-.95 1.516-.95 1.12 0 1.695.49 1.765 1.43l1.52-.18c-.02-1.35-1.28-2.29-3.29-2.29-1.99 0-3.09.94-3.09 2.3 0 3.27 5.12 1.95 5.12 3.77 0 .81-.8 1.01-1.82 1.01-1.28 0-2.01-.42-2.22-1.79l-1.59.18c.31 2 1.74 2.66 3.8 2.66 2.31 0 3.4-.99 3.4-2.38 0-3.11-5.14-1.83-5.14-3.74zm-1.433-11.02c-.113-.17-.057-.63.266-1.6h3.44c.35.97.4 1.43.3 1.6v.14h2.55v-.14c-.36-.35-.6-.6-1.29-2.2l-2.31-5.45h-1.61l-2.14 5.45c-.59 1.48-.85 1.89-1.24 2.2v.14h2.03v-.14zm1.344-4.45c.25-.67.46-1.18.59-1.83h.08c.08.66.33 1.29.56 1.84l.78 1.96H96.6l.74-1.96zm-12.31-2.13h.14c.85 0 1.89.14 2.64.37h.14v-1.34h-7.6v1.35h.14c.75-.22 1.79-.36 2.65-.36h.14v4.43c0 1.67-.21 1.95-.42 2.16v.14h2.57v-.14c-.21-.21-.42-.49-.42-2.15v-4.43zm6.11 15.96c.21.21.42.49.42 2.16v1.08c0 .58.02 1.28.14 1.95h-.09c-.27-.63-.59-1.13-.95-1.6l-2.94-3.72h-2.2v.14c.21.21.42.49.42 2.16v3.1c0 1.67-.21 1.95-.42 2.16v.14h2.21v-.14c-.26-.21-.51-.49-.51-2.15v-1.96c0-.57-.03-1.27-.14-1.95h.08c.26.58.57 1.14.95 1.6l3.64 4.61h1.08v-5.41c0-1.66.21-1.94.42-2.15v-.14h-2.13v.14zm26.76 1.21h.14c.75-.23 1.79-.37 2.64-.37h.14V125c0 1.67-.21 1.948-.42 2.16v.14h2.58v-.14c-.21-.21-.42-.49-.42-2.157v-4.425h.14c.85 0 1.89.14 2.65.364h.14v-1.347h-7.59v1.35zm-4.4-1.21c.21.21.42.49.42 2.16V125c0 1.667-.21 1.946-.42 2.157v.14h2.57v-.14c-.21-.21-.42-.49-.42-2.156v-3.11c0-1.67.21-1.95.42-2.16v-.14h-2.57v.14zm-3.75-16.8c.21.21.42.49.42 2.16v1.08c0 .58.02 1.28.14 1.95h-.09c-.27-.63-.59-1.13-.96-1.6l-2.94-3.72h-2.2v.14c.21.21.42.49.42 2.16v3.11c0 1.67-.21 1.95-.42 2.16v.14h2.21v-.14c-.25-.21-.51-.49-.51-2.16v-1.96c0-.57-.03-1.27-.14-1.95h.08c.26.58.57 1.14.95 1.6l3.64 4.61h1.08v-5.41c0-1.66.21-1.94.42-2.16v-.14h-2.13v.14zm12.58-10.58h-.14c-1.39.3-2.27.37-3.76.37h-.14V88.3c0-1.666.21-1.947.42-2.156V86h-2.58v.14c.21.21.42.49.42 2.16v3.11c0 1.665-.21 1.944-.42 2.155v.14h6.19v-1.35zm-11.43-6.22c.21.21.42.49.42 2.16v3.11c0 1.67-.21 1.95-.42 2.16v.14h2.58v-.14c-.21-.21-.42-.49-.42-2.16v-3.11c0-1.66.21-1.94.42-2.15V86h-2.58v.14z"/></svg>
