<svg xmlns="http://www.w3.org/2000/svg" xmlns:xlink="http://www.w3.org/1999/xlink" viewBox="30.767 175.942 1982.321 614.399">
<g>
	<path d="M1065.848,683.7c-37.2,13.2-79.201,21-118.801,21c-48.601,0-106.201-12-153.001-62.4
		c-18.601-19.801-55.201-67.801-55.201-148.802c0-73.801,30.6-125.401,65.401-156.002c28.2-25.2,75.601-49.8,148.801-49.8
		c51,0,90.001,12,112.801,20.399v92.401h-33.601l-9-54.601l-7.8-10.8c-18-9-39-15.601-66.601-15.601
		c-113.401,0-147.001,91.201-147.001,174.602c0,56.4,16.2,99.001,37.8,126.002c19.2,24,54.601,52.8,117.001,52.8
		c21.6,0,38.4-3.6,52.8-7.8l9.601-9.6l13.2-66.602h33.601V683.7z"/>
	<path d="M1393.441,277.496v24.6l-38.4,3l-10.2,8.4v28.2h13.2c27,0,76.201,3,114.001,31.801c16.8,12.6,51.601,45.601,51.601,111.601
		c0,47.4-18,81.601-48,105.602c-16.201,13.2-52.801,36-116.401,36h-14.4V661.5l10.2,8.399l38.4,3V697.5H1242.24V672.9l38.4-3
		l10.199-8.399v-34.801h-14.4c-63.6,0-100.2-22.8-116.4-36c-30-24.001-48-58.201-48-105.602c0-66,34.8-99.001,51.6-111.601
		c37.801-28.801,87.001-31.801,114.002-31.801h13.199v-28.2l-10.199-8.4l-38.4-3v-24.6H1393.441z M1290.839,369.297h-12
		c-93.601,0-112.801,61.2-112.801,115.801c0,53.4,22.801,114.001,112.801,114.001h12V369.297z M1344.84,599.099h12
		c90.001,0,112.802-60.601,112.802-114.001c0-35.4-11.4-70.2-34.801-90.601c-10.801-9.601-34.801-25.2-78.001-25.2h-12V599.099z"/>
	<path d="M1709.038,294.896v24.601l-37.2,3l-10.2,8.4v271.803l213.603-259.803v-12l-10.2-8.4l-37.2-3v-24.601h145.801v24.601
		l-34.2,3l-10.2,8.4V661.5l10.2,8.399l34.2,3V697.5H1827.84V672.9l37.2-3l10.2-8.399V383.698l-213.603,259.802V661.5l10.2,8.399
		l37.2,3V697.5h-145.802V672.9l34.201-3l10.199-8.399V330.897l-10.199-8.4l-34.201-3v-24.601H1709.038z"/>
</g>
<path d="M191.662,484.641c-1.865,6.529-13.058,38.241-19.587,55.03c-0.933,2.798,3.731,27.981,14.923,27.981
	c9.327,0,12.125-13.991,13.058-14.923h2.798c0,2.798-2.798,25.183-14.923,26.116c-10.26,0.933-15.856-6.529-20.52-27.048
	c0,0-11.192,28.915-39.174,27.048c-25.184-1.865-40.107-19.587-40.107-48.501c0-33.578,23.318-51.299,42.905-49.434
	c22.385,0.933,30.78,25.184,34.511,34.511c0,0,8.395-25.184,9.327-30.78H191.662z M130.103,572.316
	c21.453,1.865,30.78-45.703,30.78-45.703c-1.866-10.26-2.798-10.26-3.731-12.125c-5.596-17.722-16.789-27.981-27.049-27.981
	c-24.25,0.933-24.25,43.837-24.25,43.837C105.852,534.075,103.987,569.518,130.103,572.316L130.103,572.316z M471.477,560.191
	c0.933-1.865,2.798,14.924,21.452,18.654c12.125,1.866,20.52-2.798,27.049-10.26c5.596-7.461,11.192-18.654,11.192-34.51
	c0.933-13.058-3.73-27.981-11.192-36.376c-8.395-9.327-19.587-15.856-38.241-15.856c0-0.933,0,2.798,0,2.798
	s31.712-0.933,32.645,49.434c0,45.703-21.453,39.174-21.453,39.174s-15.856-0.933-18.654-24.25
	c1.866-5.596,5.596-14.923,5.596-26.116c0.933-16.789-4.664-25.183-7.461-26.116c-5.596,0.933-9.327,10.26-8.395,27.049
	c0.933,13.058,5.596,25.183,5.596,25.183c-0.933,4.664-5.596,19.587-15.856,23.318c-2.798,1.865-14.923,3.731-20.52-12.125
	c-4.664-13.991-3.73-27.048-2.798-39.174c3.731-35.443,31.712-36.376,31.712-36.376v-2.798c-7.462,0-31.712,0.933-43.838,23.318
	c-3.731,7.461-6.529,13.991-6.529,28.914c0,10.26,2.798,27.981,15.856,38.241c10.26,8.395,21.453,8.395,26.116,5.596
	C464.948,573.249,470.544,562.056,471.477,560.191L471.477,560.191z M466.813,661.857c-2.798,0-12.125,1.865-12.125,1.865
	s0.933,5.597,0.933,7.462c0.933,1.865,0,2.798,0,3.731c-0.933,0,0,0-0.933,1.865c-5.596,11.192-33.578,32.645-69.954,33.577
	c-37.309,0-61.559-20.52-67.156-37.309V435.207h83.012l5.597,3.73h4.664v-20.52h-4.664l-5.597,3.731h-83.012v-69.954
	c15.856-1.866,32.646-13.058,32.646-37.309c0-23.317-14.924-36.375-32.646-40.106v-40.107l2.798-6.529v-3.731h-6.529h-8.395h-5.596
	v3.731l2.798,6.529v40.107c-17.722,2.798-32.645,15.856-32.645,40.106c0,23.318,14.923,35.443,32.645,38.241v69.021h-82.079
	l-6.529-3.731h-4.664v20.52h4.664l6.529-3.73h82.079v237.842c-6.529,15.856-21.452,38.241-68.088,38.241
	c-32.645,0-61.56-26.115-68.088-34.51c-0.933-0.933-1.865-0.933-1.865-0.933c-0.933-0.933,0-2.799,0-3.731
	c0-1.865,1.865-8.395,1.865-8.395s-7.462-0.933-10.26-0.933c-2.798-0.933-13.991-1.865-13.991-1.865s0,10.26,0,13.058
	c0,1.866,0,10.261,0,10.261s6.529-0.934,8.395-0.934c1.865,0,3.73,0.934,4.664,1.866c14.923,16.788,41.039,37.309,79.281,38.241
	c34.51,0.933,67.155-15.856,75.55-34.511c13.058,20.52,43.837,34.511,75.55,33.578c38.241,0,71.819-25.184,80.213-39.175
	c1.866-0.933,2.798-1.865,4.664-1.865l7.462,0.933c0,0,0.933-8.395,0.933-10.26c0-2.798,0-12.125,0-12.125
	S469.611,660.924,466.813,661.857L466.813,661.857z M317.578,285.973c12.125,2.798,22.385,11.193,22.385,28.914
	c0,16.789-10.26,24.25-22.385,27.048V285.973z M280.27,314.887c0-17.721,10.26-26.116,22.385-28.914v55.962
	C290.53,338.205,280.27,332.608,280.27,314.887z"/>
</svg>
