<svg xmlns="http://www.w3.org/2000/svg" viewBox="0 210.5 1440 379"><path d="M767.066 549.3c-27.415 9.728-58.367 15.476-87.55 15.476-35.818 0-78.266-8.844-112.755-45.985-13.708-14.592-40.68-49.966-40.68-109.66 0-54.387 22.55-92.412 48.197-114.964 20.78-18.57 55.715-36.7 109.66-36.7 37.583 0 66.325 8.843 83.128 15.032v68.095h-24.763l-6.632-40.238-5.75-7.96c-13.265-6.632-28.74-11.497-49.08-11.497-83.572 0-108.333 67.21-108.333 128.674 0 41.563 11.938 72.958 27.856 92.856 14.15 17.688 40.238 38.91 86.224 38.91 15.918 0 28.3-2.652 38.91-5.747l7.077-7.074 9.728-49.083h24.763V549.3zM1008.486 249.948v18.13l-28.3 2.21-7.516 6.19v20.78h9.727c19.897 0 56.157 2.212 84.014 23.437 12.382 9.286 38.028 33.606 38.028 82.245 0 34.932-13.265 60.136-35.373 77.823-11.94 9.728-38.912 26.53-85.782 26.53h-10.61v25.646l7.516 6.188 28.298 2.21v18.13h-111.43V541.34l28.3-2.21 7.515-6.19v-25.646h-10.61c-46.87 0-73.844-16.803-85.782-26.53-22.107-17.688-35.373-42.892-35.373-77.823 0-48.638 25.646-72.958 38.027-82.244 27.857-21.225 64.115-23.436 84.014-23.436h9.727v-20.782l-7.516-6.19-28.3-2.21v-18.13h111.426zM932.873 317.6h-8.843c-68.98 0-83.13 45.102-83.13 85.34 0 39.354 16.804 84.014 83.13 84.014h8.843V317.6zm39.796 169.353h8.843c66.326 0 83.13-44.66 83.13-84.013 0-26.088-8.4-51.734-25.647-66.77-7.96-7.075-25.647-18.57-57.482-18.57h-8.844v169.353zM1241.064 262.772v18.13l-27.414 2.21-7.517 6.19v200.306l157.415-191.462v-8.844l-7.517-6.19-27.414-2.21v-18.13h107.448v18.13l-25.203 2.21-7.516 6.19V532.94l7.517 6.19 25.204 2.21v18.13h-107.45v-18.13l27.415-2.21 7.516-6.188V328.214l-157.414 191.46v13.266l7.516 6.19 27.415 2.21v18.13h-107.45v-18.13l25.206-2.21 7.514-6.188v-243.64l-7.515-6.19-25.206-2.21v-18.13h107.45zM120.802 405.045c-1.286 4.503-9.006 26.375-13.51 37.954-.643 1.93 2.574 19.297 10.293 19.297 6.434 0 8.363-9.65 9.006-10.292h1.932c0 1.93-1.93 17.368-10.293 18.012-7.077.644-10.936-4.503-14.153-18.654 0 0-7.72 19.943-27.02 18.654-17.368-1.286-27.66-13.51-27.66-33.45 0-23.16 16.08-35.382 29.59-34.096 15.44.646 21.23 17.37 23.804 23.804 0 0 5.79-17.37 6.434-21.23h11.578zm-42.458 60.47c14.796 1.285 21.23-31.522 21.23-31.522-1.287-7.076-1.93-7.076-2.574-8.363-3.858-12.223-11.58-19.298-18.655-19.298-16.725.644-16.725 30.233-16.725 30.233 0 2.575-1.287 27.02 16.724 28.95zm235.445-8.363c.642-1.287 1.93 10.293 14.794 12.865 8.362 1.288 14.152-1.93 18.655-7.077 3.858-5.145 7.718-12.864 7.718-23.8.644-9.008-2.572-19.3-7.72-25.09-5.79-6.433-13.51-10.935-26.374-10.935v1.93s21.87-.645 22.516 34.094c0 31.52-14.797 27.017-14.797 27.017s-10.936-.643-12.865-16.725c1.286-3.86 3.86-10.292 3.86-18.01.643-11.58-3.218-17.37-5.147-18.014-3.858.644-6.432 7.077-5.788 18.655.643 9.006 3.86 17.368 3.86 17.368-.645 3.218-3.86 13.51-10.937 16.083-1.93 1.286-10.293 2.574-14.153-8.362-3.217-9.648-2.572-18.653-1.93-27.018 2.573-24.445 21.87-25.088 21.87-25.088v-1.93c-5.145 0-21.87.644-30.233 16.08-2.574 5.147-4.503 9.65-4.503 19.944 0 7.076 1.93 19.3 10.936 26.374 7.076 5.79 14.796 5.79 18.012 3.86 7.72-3.215 11.58-10.933 12.224-12.22zm-3.22 70.12c-1.93 0-8.36 1.285-8.36 1.285s.643 3.86.643 5.146c.644 1.286 0 1.93 0 2.573-.644 0 0 0-.644 1.286-3.86 7.72-23.16 22.516-48.248 23.158-25.73 0-42.457-14.152-46.316-25.732V370.95H264.9l3.858 2.573h3.217V359.37h-3.217l-3.86 2.573h-57.252v-48.246c10.936-1.287 22.516-9.006 22.516-25.73 0-16.082-10.293-25.088-22.516-27.662v-27.66l1.93-4.505v-2.572h-14.154v2.572l1.932 4.504v27.66c-12.223 1.93-22.515 10.937-22.515 27.662 0 16.082 10.29 24.444 22.514 26.375v47.604h-56.61l-4.502-2.573h-3.217v14.153h3.217l4.503-2.573h56.61v164.04c-4.504 10.936-14.797 26.374-46.96 26.374-22.516 0-42.46-18.01-46.96-23.802-.644-.643-1.287-.643-1.287-.643-.644-.646 0-1.933 0-2.575 0-1.285 1.286-5.79 1.286-5.79s-5.146-.643-7.076-.643c-1.93-.644-9.65-1.286-9.65-1.286v16.084s4.503-.645 5.79-.645c1.286 0 2.572.645 3.218 1.287 10.29 11.578 28.304 25.73 54.68 26.374 23.8.645 46.315-10.937 52.106-23.802 9.005 14.152 30.233 23.802 52.105 23.158 26.374 0 49.533-17.368 55.322-27.02 1.286-.643 1.93-1.285 3.216-1.285l5.146.643s.644-5.79.644-7.076v-8.362s-6.435.645-8.365 1.29zM207.646 268.025c8.362 1.93 15.438 7.72 15.438 19.942 0 11.58-7.076 16.725-15.438 18.654v-38.596zm-25.73 19.94c0-12.22 7.075-18.01 15.437-19.94v38.596c-8.362-2.574-15.438-6.433-15.438-18.655z"/></svg>
