<svg xmlns="http://www.w3.org/2000/svg" width="510.273" height="80.625" viewBox="0 0 510.273 80.625"><path fill="none" d="M-165.6-25.37h841.89v595.276H-165.6z"/><path d="M243.66 41.436h1.784l-4.598-10.88h-1.688l-4.6 10.88h1.737l.957-2.393h5.438l.97 2.393zm-5.88-3.706l2.178-5.44 2.203 5.44h-4.38zm38.1-2.25c0-3.19-2.344-5.112-5.346-5.112-3.005 0-5.35 1.922-5.35 5.11 0 1.972.94 3.755 2.72 4.74l-2.483-.19v1.408h4.37V40.17c-1.74-.984-2.95-2.676-2.95-4.69 0-2.064 1.41-3.706 3.71-3.706s3.71 1.643 3.71 3.705c0 2.01-1.22 3.7-2.95 4.69v1.26h4.36v-1.4l-2.48.18c1.79-.99 2.72-2.77 2.72-4.74zm-7.548 11.958l.562.562 1.314-.082c-.902.754-1.564 1.422-2.304 1.912-1.22.8-2.72 1.408-4.733 1.408-3.51 0-5.72-1.69-7.03-2.957V24.32h7.79l1.03 1.03h.94v-.937l-.79-.797.8-.797v-.94h-.94l-1.03 1.03h-7.79v-4.99c1.97-.36 3.48-1.99 3.48-4.06 0-2.07-1.5-3.71-3.47-4.06V4.85l.94-.936v-.94h-.94l-.8.797-.8-.79h-.93v.94l.94.94V9.8c-1.97.35-3.47 1.984-3.47 4.056 0 2.07 1.5 3.703 3.47 4.055v5h-7.78l-1.03-1.03h-.94v.94l.8.8-.8.8v.94h.94l1.03-1.03h7.79v23.96c-1.31 1.27-3.51 2.96-7.03 2.96-2.01 0-3.52-.6-4.74-1.4-.73-.49-1.4-1.15-2.3-1.91l1.32.08.56-.56-.56-.56h-3.33v3.28l.61.61.61-.61-.08-1.27c.92 1.09 1.66 1.68 2.71 2.35 1.36.85 3.05 1.41 5.208 1.41 2.25 0 4.9-.67 7.036-2.59v1.71l-.94.94v.94h.94l.797-.8.8.8h.94v-.93l-.94-.94v-1.71c2.137 1.92 4.787 2.6 7.037 2.6 2.155 0 3.843-.56 5.206-1.4 1.05-.67 1.79-1.264 2.71-2.35l-.08 1.27.61.61.61-.61v-3.3h-3.33l-.56.56zm-12.198-36.434c1.275.33 2.16 1.445 2.16 2.854 0 1.41-.885 2.524-2.16 2.854v-5.708zm-1.593 5.71c-1.27-.33-2.15-1.444-2.15-2.855 0-1.41.89-2.53 2.16-2.86v5.71z"/><path d="M6.678 71.774c0 2.578.757 3.992 2.97 3.992 1.75 0 2.577-1.246 2.998-2.577l1.513.7c-.75 1.7-2.16 2.99-4.65 2.99-2.99 0-4.95-2.15-4.95-5.12s1.96-5.11 4.87-5.11c2.2 0 3.92 1.09 4.53 3.01l-1.88.75c-.37-1.56-.95-2.65-2.62-2.65-2.01 0-2.8 1.41-2.8 3.99zm10-.504c0-1.666-.21-1.946-.42-2.156v-.14h4.69c1.766 0 2.536.714 2.536 1.877 0 .98-.8 1.74-1.934 1.81v.09c1.415.06 2.283.91 2.283 1.96 0 1.21-.813 1.98-2.647 1.98h-4.93v-.14c.21-.21.42-.49.42-2.16v-3.11zm1.68-1.373v2.354h2.06c.91 0 1.344-.37 1.344-1.16 0-.78-.434-1.19-1.345-1.19h-2.06zm2.255 3.28h-2.255v2.576h2.255c.967 0 1.43-.477 1.43-1.303-.002-.84-.464-1.274-1.43-1.274zm12.59 1.203c0 1.667.21 1.947.42 2.157v.14h-2.676v-.14c.28-.21.52-.364.52-2.1v-.687H29.87c-.997 0-1.263.448-1.445 1.064-.224.742-.28 1.22-.35 1.863h-2.283v-.14c.266-.24.406-.463.672-1.262l.126-.35c.323-.883.8-1.54 1.92-1.555v-.07c-1.54-.14-2.227-.896-2.227-2.115 0-1.358.994-2.213 2.94-2.213h4.4v.14c-.21.21-.422.49-.422 2.157v3.11zm-3.474-4.426c-.97 0-1.6.406-1.6 1.43 0 1.008.63 1.414 1.59 1.414h1.73v-2.844h-1.73zm10.37 0v4.426c0 1.667.21 1.947.42 2.157v.14h-2.57v-.14c.21-.21.42-.49.42-2.157v-4.426h-.14c-.86 0-1.9.14-2.65.364h-.14v-1.345h7.59v1.345h-.14c-.76-.225-1.79-.364-2.65-.364h-.14zm8.22 6.934c-2.64 0-4.11-1.82-4.11-4.063s1.47-4.062 4.1-4.062 4.1 1.82 4.1 4.062-1.47 4.063-4.11 4.063zm0-7.075c-1.77 0-2.15 1.247-2.15 3.012 0 1.766.38 3.012 2.14 3.012s2.14-1.246 2.14-3.012c0-1.764-.38-3.012-2.15-3.012zm5.92 2.452h4.9v1.26h-4.9v-1.26zm11.05 4.623v-.14c.16-.17.33-.393.39-1.373-2.94 0-5.07-1.022-5.07-3.712s2.15-3.713 5.09-3.713c-.06-.96-.24-1.19-.41-1.353v-.14h2.49v.14c-.17.168-.35.393-.41 1.36 2.94 0 5.08 1.02 5.08 3.71s-2.13 3.713-5.07 3.713c.05.98.22 1.203.39 1.37v.14H65.3zm.39-7.985c-2.1 0-3.1.7-3.1 2.76 0 2.06.99 2.76 3.09 2.76v-5.52zm1.71 5.52c2.1 0 3.09-.7 3.09-2.76 0-2.06-1-2.76-3.1-2.76v5.52zm9.11 2.255h-2.01v-.14c.21-.21.42-.49.42-2.158v-3.11c0-1.666-.21-1.946-.42-2.156v-.14h2.57v.14c-.21.21-.42.49-.42 2.157v1.67c0 .76 0 1.25-.11 2.03h.08c.31-.74.62-1.19 1-1.75l2.86-4.24h2.01v.14c-.21.21-.42.49-.42 2.16v3.11c0 1.67.21 1.95.42 2.16v.14h-2.57v-.14c.21-.21.42-.49.42-2.15v-1.67c0-.75 0-1.24.11-2.03h-.09c-.31.74-.62 1.19-1 1.75l-2.85 4.24zm10.98-5.94c0 3.656-.46 6.15-2.37 6.15-.3 0-.54-.043-.75-.127v-1.52c.11.03.21.05.31.05 1.44 0 1.54-3.3 1.54-4.49 0-1.03-.21-1.45-.42-1.66V69h6.55v.14c-.21.21-.42.49-.42 2.156v3.11c0 1.667.21 1.947.42 2.157v.14h-2.57v-.14c.21-.21.42-.49.42-2.154v-4.43h-2.72v.79zm12.23 4.202h-3.44c-.32.967-.38 1.43-.27 1.597v.14h-2.03v-.14c.39-.308.64-.714 1.23-2.2l2.14-5.447h1.61l2.31 5.448c.68 1.598.92 1.85 1.29 2.2v.14H100v-.14c.097-.17.055-.63-.296-1.598zm-3.11-.896h2.76l-.79-1.96c-.23-.547-.48-1.178-.56-1.836h-.09c-.13.658-.34 1.163-.59 1.835l-.74 1.96zm7.98-2.774c0-1.666-.21-1.946-.42-2.156v-.14h4.51c2.11 0 3.11 1.008 3.11 2.465s-1 2.46-3.11 2.46h-2.35v.47c0 1.73.23 1.94.51 2.15v.14h-2.68v-.14c.21-.21.42-.49.42-2.16v-3.11zm3.7-1.316h-1.96v2.97h1.96c1.1 0 1.61-.505 1.61-1.485s-.51-1.49-1.61-1.49zm10.92 3.57c-.79-.293-1.94-.307-2.89-.307h-.15v2.48h.42c1.76 0 2.65-.07 4.03-.365h.14v1.345H114v-.14c.21-.21.42-.49.42-2.158v-3.11c0-1.67-.21-1.95-.42-2.16v-.14h6.47v1.34h-.14c-1.385-.3-2.27-.37-4.032-.37h-.144v2.28h.14c.954 0 2.103-.02 2.887-.31h.14v1.6h-.14zm7.63-3.57v4.426c0 1.667.21 1.947.42 2.157v.14h-2.58v-.14c.21-.21.42-.49.42-2.157v-4.426h-.14c-.86 0-1.9.14-2.65.364h-.14v-1.345h7.59v1.345h-.14c-.76-.225-1.8-.364-2.65-.364h-.14zm8.22 6.934c-2.63 0-4.1-1.82-4.1-4.063s1.47-4.062 4.1-4.062 4.1 1.82 4.1 4.062-1.47 4.063-4.1 4.063zm0-7.075c-1.77 0-2.14 1.247-2.14 3.012 0 1.766.38 3.012 2.14 3.012 1.76 0 2.14-1.246 2.14-3.012 0-1.764-.38-3.012-2.15-3.012zm6.9 1.457c0-1.666-.21-1.946-.42-2.156v-.14h4.69c1.76 0 2.53.714 2.53 1.877 0 .98-.8 1.74-1.94 1.81v.09c1.41.06 2.28.91 2.28 1.96 0 1.21-.82 1.98-2.65 1.98h-4.94v-.14c.21-.21.42-.49.42-2.16v-3.11zm1.68-1.373v2.354h2.06c.91 0 1.34-.37 1.34-1.16 0-.78-.44-1.19-1.35-1.19h-2.06zm2.25 3.28h-2.26v2.576h2.26c.96 0 1.43-.477 1.43-1.303-.01-.84-.47-1.274-1.43-1.274zm7.42-.352c0 1.905.52 3.012 2.08 3.012 1.37 0 2.03-.925 2.36-1.92l1.21.604c-.59 1.35-1.73 2.37-3.69 2.37-2.38 0-3.938-1.71-3.938-4.06s1.55-4.06 3.88-4.06c1.71 0 3.14.84 3.63 2.37l-1.6.63c-.3-1.13-.72-1.94-2.006-1.94-1.43 0-1.947 1.11-1.947 3.01zm13.6-1.415c-.4.66-.68 1.037-1.47 1.163v.084c1.52 0 2.1.59 2.45 1.667l.29.91c.25.77.39 1.022.64 1.303v.14h-2.22c-.09-.657-.2-1.302-.44-2.086-.21-.71-.41-1.37-1.58-1.37h-1.36v1.16c0 1.67.21 1.95.42 2.16v.14h-2.58v-.14c.21-.21.42-.49.42-2.15v-3.11c0-1.66-.21-1.94-.42-2.15v-.14h2.58v.14c-.21.21-.42.49-.42 2.16v.97h.91c1.02 0 1.34-.26 1.73-1.4l.22-.7c.28-.85.77-1.37 1.64-1.37.25 0 .49.03.64.1v1.92h-.06c-.13-.1-.28-.17-.49-.17-.3 0-.53.13-.79.56l-.14.24zm5.96 5.268h-2.02v-.14c.21-.21.42-.49.42-2.158v-3.11c0-1.666-.21-1.946-.42-2.156v-.14h2.58v.14c-.21.21-.42.49-.42 2.157v1.67c0 .76 0 1.25-.12 2.03h.09c.31-.74.61-1.19.99-1.75l2.86-4.24h2.01v.14c-.21.21-.42.49-.42 2.16v3.11c0 1.67.21 1.95.42 2.16v.14h-2.57v-.14c.21-.21.42-.49.42-2.15v-1.67c0-.75 0-1.24.11-2.03h-.088c-.31.74-.618 1.19-.997 1.75l-2.86 4.25zm10.65 0h-2.02v-.14c.21-.21.42-.49.42-2.158v-3.11c0-1.666-.21-1.946-.42-2.156v-.14h2.57v.14c-.21.21-.42.49-.42 2.157v1.67c0 .76 0 1.25-.11 2.03h.08c.302-.74.61-1.19.99-1.75l2.86-4.24h2.013v.14c-.21.21-.42.49-.42 2.16v3.11c0 1.67.21 1.95.42 2.16v.14H186.9v-.14c.21-.21.42-.49.42-2.15v-1.67c0-.75 0-1.24.115-2.03h-.085c-.31.74-.61 1.19-.99 1.75l-2.86 4.25zm-.76-10.254c0-.196.03-.336.06-.462h1.61c-.03.112-.04.238-.04.35 0 .547.29 1.037 1.16 1.037s1.16-.49 1.16-1.04c0-.11-.02-.24-.04-.35h1.61c.03.12.05.26.05.46 0 1.06-.94 1.65-2.79 1.65-1.848 0-2.787-.59-2.787-1.66zm13.04 4.846c0-1.666-.21-1.946-.42-2.156v-.14h7.81v.14c-.21.21-.42.49-.42 2.157v3.11c0 1.67.21 1.95.42 2.16v.14h-2.58v-.14c.21-.21.42-.49.42-2.15v-4.43h-3.5v4.43c0 1.67.21 1.95.42 2.16v.14h-2.57v-.14c.21-.21.42-.49.42-2.15v-3.11zm10.47 0c0-1.666-.21-1.946-.42-2.156v-.14h4.51c2.11 0 3.11 1.008 3.11 2.465s-1 2.46-3.11 2.46H208v.47c0 1.73.24 1.94.52 2.15v.14h-2.677v-.14c.21-.21.42-.49.42-2.16v-3.11zm3.7-1.315H208v2.97h2c1.107 0 1.61-.505 1.61-1.485s-.502-1.486-1.61-1.486zm9.73 4.985h-3.448c-.33.967-.38 1.43-.27 1.597v.14h-2.03v-.14c.39-.308.64-.714 1.23-2.2l2.14-5.447h1.61l2.315 5.448c.686 1.598.924 1.85 1.29 2.2v.14H220v-.14c.1-.17.053-.63-.297-1.598zm-3.11-.896h2.76l-.787-1.96c-.225-.547-.477-1.178-.56-1.836h-.085c-.125.658-.335 1.163-.59 1.835l-.74 1.96zm7.98-2.774c0-1.666-.21-1.946-.42-2.156v-.14h4.69c1.765 0 2.535.714 2.535 1.877 0 .98-.8 1.74-1.93 1.81v.09c1.412.06 2.28.91 2.28 1.96 0 1.21-.81 1.98-2.645 1.98h-4.93v-.14c.21-.21.42-.49.42-2.16v-3.11zm1.68-1.373v2.354h2.06c.91 0 1.342-.37 1.342-1.16 0-.78-.43-1.19-1.34-1.19h-2.06zm2.253 3.28h-2.256v2.576h2.257c.97 0 1.43-.477 1.43-1.303 0-.84-.46-1.274-1.43-1.274zm9.564 3.71c-2.63 0-4.1-1.82-4.1-4.062s1.47-4.062 4.103-4.062c2.638 0 4.108 1.82 4.108 4.062s-1.47 4.063-4.1 4.063zm0-7.074c-1.763 0-2.14 1.247-2.14 3.012 0 1.766.376 3.012 2.14 3.012s2.14-1.246 2.14-3.012c0-1.764-.38-3.012-2.14-3.012zm8.165 3.012c0 1.905.514 3.012 2.083 3.012 1.37 0 2.03-.925 2.363-1.92l1.205.604c-.59 1.35-1.724 2.37-3.685 2.37-2.38 0-3.933-1.71-3.933-4.06s1.557-4.06 3.88-4.06c1.71 0 3.14.84 3.63 2.37l-1.6.63c-.295-1.13-.715-1.94-2.004-1.94-1.427 0-1.944 1.11-1.944 3.01zm10.093-2.087c0 3.656-.467 6.15-2.37 6.15-.294 0-.53-.043-.74-.127v-1.52c.11.03.21.05.31.05 1.44 0 1.54-3.3 1.54-4.49 0-1.03-.21-1.45-.42-1.66V69h6.552v.14c-.2.21-.42.49-.42 2.156v3.11c0 1.667.22 1.947.42 2.157v.14h-2.57v-.14c.21-.21.42-.49.42-2.154v-4.43h-2.71v.79zm12.22 4.202h-3.44c-.32.967-.376 1.43-.265 1.597v.14h-2.03v-.14c.4-.308.65-.714 1.24-2.2l2.14-5.447h1.61l2.31 5.448c.686 1.598.924 1.85 1.287 2.2v.14h-2.55v-.14c.1-.17.06-.63-.29-1.598zm-3.11-.896h2.76l-.78-1.96c-.23-.547-.48-1.178-.56-1.836h-.09c-.13.658-.336 1.163-.59 1.835l-.742 1.96zm7.98-2.774c0-1.666-.21-1.946-.42-2.156v-.14h4.69c1.767 0 2.538.714 2.538 1.877 0 .98-.8 1.74-1.93 1.81v.09c1.41.06 2.28.91 2.28 1.96 0 1.21-.82 1.98-2.65 1.98H273v-.14c.21-.21.42-.49.42-2.16v-3.11zm1.68-1.373v2.354h2.06c.91 0 1.345-.37 1.345-1.16 0-.78-.433-1.19-1.343-1.19h-2.06zm2.256 3.28h-2.25v2.576h2.26c.968 0 1.43-.477 1.43-1.303 0-.84-.463-1.274-1.43-1.274zm11.47.04h-3.57v1.163c0 1.667.21 1.947.42 2.157v.14h-2.58v-.14c.22-.21.43-.49.43-2.157v-3.11c0-1.666-.21-1.946-.42-2.156v-.14h2.58v.14c-.21.21-.42.49-.42 2.157v.97h3.57v-.96c0-1.66-.21-1.94-.42-2.15v-.14h2.6v.14c-.21.21-.42.49-.42 2.16v3.11c0 1.67.21 1.95.42 2.16v.14h-2.574v-.14c.21-.21.42-.49.42-2.15v-1.17zm8.84 3.67c-2.63 0-4.1-1.82-4.1-4.062s1.47-4.062 4.105-4.062 4.103 1.82 4.103 4.062-1.47 4.063-4.105 4.063zm0-7.074c-1.76 0-2.14 1.247-2.14 3.012 0 1.766.38 3.012 2.145 3.012s2.14-1.246 2.14-3.012c0-1.764-.38-3.012-2.14-3.012zm5.928 2.452h4.9v1.26h-4.9v-1.26zm8.685.685l-2.03-2.604c-.45-.588-.643-.854-1.12-1.232v-.14h2.61v.14c0 .225.17.603.48 1.01l.49.657c.192.26.38.51.56.8h.053c.193-.29.375-.54.56-.8l.49-.65c.31-.4.474-.78.474-1.01v-.14h1.96v.14c-.49.38-.67.65-1.12 1.24L314 72.58l2.13 2.75c.445.59.64.85 1.13 1.23v.14h-2.602v-.15c0-.21-.195-.63-.52-1.05l-.53-.71c-.196-.267-.405-.52-.59-.84h-.07c-.194.322-.403.574-.6.84l-.53.715c-.324.42-.52.84-.52 1.05v.157h-1.963v-.14c.48-.38.65-.66 1.11-1.23l1.848-2.352zm7.28-1.68c0-1.666-.21-1.946-.42-2.156v-.14h4.51c2.12 0 3.11 1.008 3.11 2.465s-.99 2.46-3.11 2.46h-2.35v.47c0 1.73.24 1.94.52 2.15v.14h-2.675v-.14c.21-.21.42-.49.42-2.16v-3.11zm3.7-1.316h-1.96v2.97h1.96c1.11 0 1.614-.505 1.614-1.485s-.505-1.49-1.61-1.49zm7.76 6.724H329v-.14c.21-.21.424-.49.424-2.158v-3.11c0-1.666-.21-1.946-.425-2.156v-.14h2.58v.14c-.21.21-.42.49-.42 2.157v1.67c0 .76 0 1.25-.11 2.03h.08c.3-.74.61-1.19.99-1.75l2.86-4.24H337v.14c-.21.21-.42.49-.42 2.16v3.11c0 1.67.21 1.95.42 2.16v.14h-2.575v-.14c.21-.21.42-.49.42-2.15v-1.67c0-.75 0-1.24.11-2.03h-.085c-.305.74-.613 1.19-.992 1.75l-2.86 4.25zm10.32-3.853c0 1.905.52 3.012 2.09 3.012 1.37 0 2.03-.925 2.37-1.92l1.202.604c-.59 1.35-1.728 2.37-3.69 2.37-2.385 0-3.94-1.71-3.94-4.06s1.554-4.06 3.88-4.06c1.71 0 3.14.84 3.63 2.37l-1.6.63c-.294-1.13-.714-1.94-2.003-1.94-1.424 0-1.944 1.11-1.944 3.01zm11.58-2.87v4.425c0 1.667.21 1.947.42 2.157v.14h-2.58v-.14c.21-.21.42-.49.42-2.157v-4.426h-.14c-.854 0-1.89.14-2.646.364h-.14v-1.345h7.59v1.345h-.14c-.76-.225-1.795-.364-2.65-.364h-.14zm6.766 6.723h-2.02v-.14c.21-.21.42-.49.42-2.158v-3.11c0-1.666-.21-1.946-.42-2.156v-.14h2.58v.14c-.21.21-.42.49-.42 2.157v1.67c0 .76 0 1.25-.115 2.03h.082c.31-.74.62-1.19.997-1.75l2.86-4.24h2.017v.14c-.21.21-.42.49-.42 2.16v3.11c0 1.67.21 1.95.42 2.16v.14h-2.57v-.14c.21-.21.42-.49.42-2.15v-1.67c0-.75 0-1.24.11-2.03h-.08c-.31.74-.612 1.19-.99 1.75l-2.86 4.25zM373 74.94h-3.44c-.324.967-.38 1.43-.27 1.597v.14h-2.03v-.14c.39-.308.64-.714 1.23-2.2l2.14-5.447h1.61l2.315 5.448c.69 1.598.927 1.85 1.29 2.2v.14h-2.55v-.14c.1-.17.058-.63-.294-1.598zm-3.11-.896h2.76l-.78-1.96c-.227-.547-.48-1.178-.56-1.836h-.09c-.124.658-.335 1.163-.587 1.835l-.74 1.96zm13.294-.826h-3.57v1.162c0 1.667.21 1.947.42 2.157v.14h-2.58v-.14c.21-.21.42-.49.42-2.157v-3.11c0-1.666-.21-1.946-.42-2.156v-.14h2.576v.14c-.21.21-.42.49-.42 2.157v.97h3.57v-.96c0-1.66-.21-1.94-.42-2.15v-.14h2.58v.14c-.21.21-.42.49-.42 2.16v3.11c0 1.67.21 1.95.42 2.16v.14h-2.57v-.14c.21-.21.42-.49.42-2.15v-1.17zm6.69-.393c0 1.905.52 3.012 2.09 3.012 1.374 0 2.03-.925 2.37-1.92l1.203.604c-.59 1.35-1.72 2.37-3.682 2.37-2.38 0-3.937-1.71-3.937-4.06s1.556-4.06 3.88-4.06c1.71 0 3.14.84 3.63 2.37l-1.596.63c-.294-1.13-.716-1.94-2.003-1.94-1.427 0-1.945 1.11-1.945 3.01zm13.6-1.415c-.39.66-.67 1.037-1.47 1.163v.084c1.527 0 2.1.59 2.45 1.667l.296.91c.25.77.39 1.022.646 1.303v.14h-2.23c-.08-.657-.195-1.302-.434-2.086-.21-.71-.405-1.37-1.58-1.37h-1.36v1.16c0 1.67.214 1.95.42 2.16v.14h-2.573v-.14c.21-.21.42-.49.42-2.15v-3.11c0-1.66-.21-1.94-.42-2.15v-.14h2.574v.14c-.21.21-.42.49-.42 2.16v.97h.91c1.023 0 1.346-.26 1.74-1.4l.224-.7c.28-.85.77-1.37 1.64-1.37.25 0 .49.03.64.1v1.92h-.05c-.13-.1-.28-.17-.49-.17-.296 0-.534.13-.786.56l-.14.24zm5.966 5.268h-2.02v-.14c.21-.21.42-.49.42-2.158v-3.11c0-1.666-.21-1.946-.42-2.156v-.14H410v.14c-.21.21-.42.49-.42 2.157v1.67c0 .76 0 1.25-.11 2.03h.09c.31-.74.613-1.19.99-1.75l2.86-4.24h2.02v.14c-.21.21-.42.49-.42 2.16v3.11c0 1.67.21 1.95.42 2.16v.14h-2.58v-.14c.206-.21.42-.49.42-2.15v-1.67c0-.75 0-1.24.11-2.03h-.086c-.305.74-.613 1.19-.992 1.75l-2.852 4.25zm10.66 0h-2.02v-.14c.21-.21.42-.49.42-2.158v-3.11c0-1.666-.21-1.946-.42-2.156v-.14h2.578v.14c-.21.21-.42.49-.42 2.157v1.67c0 .76 0 1.25-.11 2.03h.085c.31-.74.612-1.19.99-1.75l2.855-4.24h2.015v.14c-.21.21-.42.49-.42 2.16v3.11c0 1.67.21 1.95.42 2.16v.14H423.5v-.14c.21-.21.42-.49.42-2.15v-1.67c0-.75 0-1.24.11-2.03H424c-.31.74-.617 1.19-.994 1.75l-2.856 4.25zm-.76-10.254c0-.196.03-.336.057-.462h1.61c-.03.112-.05.238-.05.35 0 .547.294 1.037 1.163 1.037.865 0 1.16-.49 1.16-1.04 0-.11-.016-.24-.045-.35h1.61c.027.12.057.26.057.46 0 1.06-.93 1.65-2.78 1.65-1.85 0-2.79-.59-2.79-1.66zM434 76.678h-2v-.14c.21-.21.42-.49.42-2.158v-3.11c0-1.666-.21-1.946-.423-2.156v-.14h2.578v.14c-.21.21-.42.49-.42 2.157v1.67c0 .76 0 1.25-.11 2.03h.086c.31-.74.62-1.19 1-1.75l2.86-4.24H440v.14c-.21.21-.422.49-.422 2.16v3.11c0 1.67.21 1.95.424 2.16v.14h-2.578v-.14c.21-.21.42-.49.42-2.15v-1.67c0-.75 0-1.24.11-2.03h-.084c-.305.74-.613 1.19-.992 1.75l-2.855 4.25zm14.37-3.46h-3.57v1.162c0 1.667.21 1.947.42 2.157v.14h-2.572v-.14c.21-.21.42-.49.42-2.157v-3.11c0-1.666-.21-1.946-.42-2.156v-.14h2.576v.14c-.21.21-.42.49-.42 2.157v.97h3.574v-.96c0-1.66-.21-1.94-.42-2.15v-.14h2.577v.14c-.21.21-.42.49-.42 2.16v3.11c0 1.67.21 1.95.42 2.16v.14h-2.577v-.14c.206-.21.42-.49.42-2.15v-1.17zm6.694-.393c0 1.905.515 3.012 2.083 3.012 1.372 0 2.03-.925 2.37-1.92l1.2.604c-.59 1.35-1.725 2.37-3.686 2.37-2.38 0-3.94-1.71-3.94-4.06s1.56-4.06 3.88-4.06c1.71 0 3.14.84 3.63 2.37l-1.59.63c-.29-1.13-.71-1.94-2-1.94-1.42 0-1.94 1.11-1.94 3.01zm11.58-2.87v4.425c0 1.667.21 1.947.42 2.157v.14h-2.58v-.14c.21-.21.42-.49.42-2.157v-4.426h-.14c-.856 0-1.894.14-2.65.364H462v-1.345h7.592v1.345h-.14c-.758-.225-1.793-.364-2.648-.364h-.14zm6.76 6.723h-2.01v-.14c.21-.21.42-.49.42-2.158v-3.11c0-1.666-.21-1.946-.42-2.156v-.14h2.574v.14c-.21.21-.42.49-.42 2.157v1.67c0 .76 0 1.25-.11 2.03h.08c.31-.74.615-1.19.994-1.75l2.857-4.24h2.02v.14c-.21.21-.42.49-.42 2.16v3.11c0 1.67.21 1.95.42 2.16v.14h-2.58v-.14c.21-.21.42-.49.42-2.15v-1.67c0-.75 0-1.24.11-2.03h-.08c-.31.74-.62 1.19-.99 1.75l-2.86 4.25zm12.46-6.724v4.426c0 1.667.21 1.947.42 2.157v.14h-2.575v-.14c.21-.21.42-.49.42-2.157v-4.426H484c-.854 0-1.89.14-2.646.364h-.14v-1.345h7.59v1.345h-.14c-.755-.225-1.79-.364-2.645-.364h-.14zm8.32 3.46c.167-.658.446-1.247.74-1.808l.407-.77c.59-1.107.74-1.457.64-1.724v-.14h1.92v.14c-.36.28-.54.616-1.15 1.723l-2.15 3.95c-.75 1.373-1.52 2.102-2.71 2.102-.62 0-1.12-.154-1.44-.378l.56-1.36c.32.21.66.29 1.04.29.55 0 .95-.31 1.167-.66l-2.175-3.95c-.615-1.12-.813-1.44-1.205-1.72v-.14h2.41v.14c-.1.26.08.6.67 1.72l.403.77c.31.57.63 1.15.8 1.81h.084zm9.03-3.46v4.426c0 1.667.21 1.947.42 2.157v.14h-2.576v-.14c.21-.21.42-.49.42-2.157v-4.426h-.14c-.853 0-1.89.14-2.646.364h-.14v-1.345h7.59v1.345h-.14c-.76-.225-1.794-.364-2.65-.364h-.14z" fill="#231F20"/></svg>
