<svg xmlns="http://www.w3.org/2000/svg" width="235.215" height="129.119" viewBox="0 0 235.215 129.119"><path d="M189.485 102.436c.21.21.42.49.42 2.157v.966h-3.57v-.97c0-1.67.208-1.95.42-2.16v-.14h-2.58v.14c.212.21.422.49.422 2.15v3.11c0 1.66-.21 1.94-.42 2.15v.14h2.577v-.14c-.21-.21-.42-.49-.42-2.16v-1.17h3.57v1.16c0 1.66-.21 1.94-.42 2.15v.14h2.578v-.14c-.21-.21-.42-.49-.42-2.16v-3.11c0-1.67.21-1.95.42-2.16v-.14h-2.577v.14zM58.52 86.476h.14v4.427c0 1.667-.21 1.947-.42 2.157v.14h2.578v-.14c-.21-.21-.42-.49-.42-2.157v-4.426h.14c.854 0 1.89.14 2.647.363h.14v-1.344h-7.592v1.344h.14c.757-.224 1.794-.363 2.648-.363zm64.808 36.864c-.38.56-.687 1.008-.994 1.75h-.084c.11-.783.11-1.273.11-2.03v-1.667c0-1.666.21-1.947.42-2.156v-.14h-2.576v.14c.21.21.42.49.42 2.156v3.11c0 1.667-.21 1.946-.42 2.156v.14h2.017l2.86-4.25c.38-.56.69-1.01 1-1.75h.09c-.11.78-.11 1.27-.11 2.03v1.66c0 1.67-.21 1.94-.42 2.15v.14h2.58v-.14c-.21-.21-.42-.49-.42-2.16v-3.11c0-1.67.21-1.95.42-2.16v-.14h-2.02l-2.85 4.24zM44.133 91.225c0-1.05-.87-1.904-2.283-1.96v-.085c1.135-.07 1.933-.826 1.933-1.807 0-1.163-.77-1.877-2.536-1.877h-4.692v.14c.21.21.42.49.42 2.157v3.11c0 1.666-.21 1.946-.42 2.156v.14h4.93c1.835 0 2.648-.77 2.648-1.98zm-5.477-4.805h2.06c.91 0 1.344.406 1.344 1.19 0 .784-.434 1.163-1.345 1.163h-2.06V86.42zm0 5.855v-2.578h2.255c.97 0 1.43.436 1.43 1.275 0 .826-.46 1.303-1.43 1.303h-2.25zm158.34-5.07h.084c-.11.783-.11 1.273-.11 2.03v1.667c0 1.667-.212 1.947-.422 2.157v.14h2.577v-.14c-.21-.21-.42-.49-.42-2.16v-3.11c0-1.67.21-1.95.42-2.16v-.14h-2.017l-2.858 4.24c-.377.56-.686 1-.994 1.75h-.084c.112-.79.112-1.28.112-2.03v-1.66c0-1.67.21-1.95.42-2.16v-.14h-2.577v.14c.21.21.42.49.42 2.15v3.11c0 1.66-.21 1.94-.42 2.15v.14h2.018l2.857-4.25c.378-.56.686-1 .994-1.75zm-111.02 4.69c-.055.98-.223 1.206-.39 1.374v.14h2.492v-.14c-.168-.17-.336-.4-.392-1.38 2.94 0 5.07-1.02 5.07-3.71s-2.142-3.72-5.084-3.72c.056-.97.238-1.19.406-1.36v-.14h-2.493v.14c.168.16.35.39.406 1.35-2.94 0-5.08 1.02-5.08 3.71s2.13 3.71 5.07 3.71zm1.71-6.47c2.1 0 3.096.7 3.096 2.76 0 2.06-.995 2.76-3.096 2.76v-5.52zm-1.71 0v5.52c-2.1 0-3.095-.7-3.095-2.76 0-2.06 1-2.76 3.1-2.76zM34.46 90.413l-1.514-.7c-.42 1.33-1.247 2.577-2.998 2.577-2.213 0-2.97-1.415-2.97-3.993 0-2.577.798-3.992 2.802-3.992 1.667 0 2.255 1.093 2.62 2.648l1.876-.758c-.616-1.918-2.34-3.012-4.538-3.012-2.914 0-4.875 2.145-4.875 5.113 0 2.97 1.96 5.112 4.945 5.112 2.494 0 3.91-1.287 4.65-2.996zm-6.45 17.247l-2.312-5.45h-1.61l-2.144 5.45c-.588 1.484-.84 1.89-1.232 2.2v.14h2.03v-.14c-.11-.17-.055-.632.267-1.6h3.44c.35.968.39 1.43.29 1.6v.14h2.55v-.14c-.37-.35-.61-.602-1.29-2.2zm-4.665-.294l.742-1.96c.25-.674.46-1.178.587-1.836h.084c.085.658.337 1.29.562 1.835l.784 1.96h-2.76zm175.336 1.793c-1.57 0-2.08-1.11-2.08-3.02s.52-3.01 1.95-3.01c1.29 0 1.71.81 2.01 1.94l1.6-.63c-.49-1.53-1.92-2.37-3.62-2.37-2.32 0-3.88 1.71-3.88 4.06 0 2.35 1.56 4.06 3.94 4.06 1.96 0 3.1-1.03 3.69-2.37l-1.2-.6c-.33.99-.99 1.92-2.36 1.92zM2.14 102.43c.21.21.42.49.42 2.157v3.11c0 1.666-.21 1.947-.42 2.156v.14h2.578v-.14c-.21-.21-.42-.49-.42-2.157v-4.428H7.8v4.428c0 1.67-.21 1.95-.42 2.16v.14h2.578v-.14c-.21-.21-.42-.49-.42-2.158v-3.11c0-1.666.21-1.945.42-2.156v-.14h-7.82v.14zm179.146 5.224l-2.312-5.45h-1.61l-2.143 5.45c-.59 1.483-.84 1.89-1.23 2.2v.14h2.03v-.14c-.11-.17-.05-.633.27-1.6h3.45c.35.967.4 1.43.3 1.6v.14h2.55v-.14c-.36-.35-.6-.603-1.29-2.2zm-4.665-.295l.74-1.96c.25-.68.46-1.18.59-1.84h.09c.09.65.34 1.29.56 1.83l.79 1.96h-2.76zm-159.5-5.07h-4.51v.14c.21.21.42.49.42 2.15v3.11c0 1.66-.21 1.94-.42 2.15v.14h2.68v-.14c-.28-.21-.52-.42-.52-2.16v-.48h2.36c2.12 0 3.11-1.01 3.11-2.47s-.99-2.47-3.11-2.47zm-.39 3.95h-1.96v-2.97h1.96c1.11 0 1.61.5 1.61 1.48s-.5 1.48-1.61 1.48zM207.65 87.2h.083c-.112.783-.112 1.273-.112 2.03v1.67c0 1.668-.21 1.948-.42 2.158v.14h2.58v-.14c-.21-.21-.42-.49-.42-2.158v-3.11c0-1.666.21-1.946.42-2.156v-.14h-2.02l-2.85 4.244c-.38.56-.68 1.008-.99 1.75h-.08c.11-.783.11-1.273.11-2.03V87.79c0-1.666.21-1.946.42-2.156v-.14h-2.57v.14c.21.21.42.49.42 2.157v3.11c0 1.67-.21 1.95-.42 2.16v.14h2.02l2.86-4.24c.38-.56.69-1.01 1-1.75zm-38.26 4.02c0-1.05-.87-1.904-2.284-1.96v-.084c1.135-.07 1.933-.827 1.933-1.808 0-1.165-.77-1.88-2.54-1.88h-4.69v.14c.21.21.42.49.42 2.158v3.11c0 1.665-.21 1.945-.42 2.155v.14h4.93c1.83 0 2.64-.77 2.64-1.97zm-5.48-4.805h2.06c.91 0 1.346.405 1.346 1.19 0 .783-.434 1.162-1.345 1.162h-2.06v-2.35zm0 5.854v-2.58h2.257c.967 0 1.43.43 1.43 1.27 0 .82-.463 1.3-1.43 1.3h-2.256zm53.35 14.26c-.38.56-.687 1.01-.995 1.75h-.084c.11-.79.11-1.28.11-2.03v-1.67c0-1.67.22-1.95.42-2.16v-.14h-2.57v.14c.21.21.42.49.42 2.15v3.11c0 1.66-.21 1.94-.42 2.15v.14h2.02l2.86-4.25c.38-.56.69-1.01 1-1.75h.09c-.11.78-.11 1.27-.11 2.03v1.67c0 1.66-.21 1.94-.42 2.15v.14h2.58v-.14c-.21-.21-.42-.49-.42-2.16v-3.11c0-1.67.21-1.95.42-2.16v-.14h-2.02l-2.85 4.24zm15.53-4.11v-.14h-2.02l-2.857 4.24c-.38.56-.686 1.01-.994 1.75h-.09c.11-.79.11-1.28.11-2.03v-1.67c0-1.67.21-1.95.42-2.16v-.14h-2.58v.14c.21.21.42.49.42 2.16v3.11c0 1.66-.21 1.94-.42 2.15v.14h2.02l2.85-4.25c.37-.56.68-1.01.99-1.75h.08c-.12.78-.12 1.27-.12 2.03v1.67c0 1.66-.21 1.94-.42 2.15v.14h2.58v-.14c-.21-.21-.42-.49-.42-2.16v-3.11c0-1.67.21-1.95.42-2.16zm-77.46-9.02c2.633 0 4.104-1.82 4.104-4.07s-1.47-4.07-4.104-4.07-4.106 1.82-4.106 4.06 1.47 4.06 4.104 4.06zm0-7.08c1.765 0 2.143 1.24 2.143 3.01s-.378 3.01-2.143 3.01c-1.768 0-2.145-1.25-2.145-3.01s.376-3.02 2.142-3.02zm50.5-1.74c1.848 0 2.787-.59 2.787-1.65 0-.2-.03-.34-.057-.46h-1.61c.025.11.04.23.04.35 0 .54-.295 1.03-1.163 1.03s-1.165-.49-1.165-1.04c0-.11.014-.24.043-.35h-1.612c-.028.12-.057.26-.057.46 0 1.06.94 1.65 2.79 1.65zm23.008 16.8c1.85 0 2.79-.59 2.79-1.65 0-.2-.03-.34-.058-.46h-1.61c.026.11.04.24.04.35 0 .54-.295 1.03-1.164 1.03-.867 0-1.162-.49-1.162-1.04 0-.11.014-.24.043-.35h-1.613c-.027.13-.057.27-.057.46 0 1.06.94 1.65 2.788 1.65zm-49.594-10.35l-1.204-.61c-.334.99-.993 1.92-2.365 1.92-1.57 0-2.088-1.11-2.088-3.02s.52-3.01 1.947-3.01c1.29 0 1.71.81 2.004 1.94l1.596-.63c-.49-1.53-1.918-2.37-3.627-2.37-2.326 0-3.88 1.71-3.88 4.06 0 2.35 1.554 4.06 3.936 4.06 1.96 0 3.094-1.03 3.683-2.37zm-62.96 2.02c-.113-.17-.057-.63.265-1.6h3.44c.35.97.39 1.43.29 1.6v.14h2.55v-.14c-.37-.35-.61-.61-1.29-2.2l-2.31-5.45h-1.61l-2.15 5.44c-.59 1.48-.84 1.89-1.23 2.2v.14h2.03v-.14zm1.344-4.46c.25-.67.46-1.18.586-1.84h.084c.085.65.337 1.28.56 1.83l.786 1.96h-2.76l.743-1.96zm9.49 4.45c-.28-.21-.518-.42-.518-2.16v-.48h2.354c2.114 0 3.11-1.01 3.11-2.47s-.996-2.47-3.11-2.47h-4.512v.14c.21.21.42.49.42 2.15v3.11c0 1.66-.21 1.94-.42 2.15v.14h2.676v-.14zm-.517-6.59h1.96c1.11 0 1.61.5 1.61 1.48s-.5 1.48-1.61 1.48h-1.96v-2.97zm14.45 5.38h-.14c-1.38.29-2.27.36-4.03.36h-.42v-2.47h.14c.95 0 2.1.01 2.89.31h.14v-1.6h-.14c-.78.29-1.93.31-2.88.31h-.14v-2.28h.14c1.77 0 2.65.07 4.04.36h.14v-1.34h-6.47v.14c.21.21.42.49.42 2.15v3.11c0 1.66-.21 1.94-.42 2.15v.14h6.75v-1.35zm4.19-5.38h.14v4.43c0 1.66-.21 1.94-.42 2.15v.14h2.58v-.14c-.21-.21-.42-.49-.42-2.16v-4.42h.14c.86 0 1.9.14 2.65.36h.14v-1.34h-7.59v1.34h.14c.76-.23 1.79-.37 2.65-.37zm65.94 21.17c-.35-1.08-.92-1.67-2.45-1.67v-.09c.8-.13 1.08-.51 1.47-1.17l.14-.24c.26-.44.49-.56.79-.56.21 0 .37.07.49.17h.06v-1.92c-.15-.07-.39-.1-.64-.1-.86 0-1.35.52-1.64 1.37l-.22.7c-.39 1.13-.71 1.4-1.73 1.4h-.91v-.97c0-1.67.21-1.95.42-2.16v-.14h-2.57v.14c.21.21.42.49.42 2.16v3.11c0 1.66-.21 1.95-.42 2.15v.15h2.58v-.14c-.21-.21-.42-.49-.42-2.16v-1.16h1.36c1.18 0 1.37.65 1.58 1.37.24.78.35 1.43.44 2.09h2.23v-.14c-.25-.28-.39-.54-.65-1.31l-.29-.91zm-27.68-17.9h1.36c1.18 0 1.38.66 1.58 1.37.24.78.36 1.43.44 2.08h2.23v-.14c-.25-.28-.39-.54-.64-1.31l-.3-.91c-.35-1.08-.93-1.67-2.45-1.67v-.09c.79-.13 1.08-.51 1.47-1.16l.14-.24c.25-.44.49-.56.78-.56.21 0 .36.07.49.17h.05v-1.92c-.15-.07-.39-.1-.64-.1-.87 0-1.36.52-1.64 1.37l-.22.7c-.39 1.13-.71 1.4-1.74 1.4h-.91v-.97c0-1.67.21-1.95.42-2.16v-.14h-2.57v.14c.21.21.42.49.42 2.15v3.11c0 1.66-.21 1.94-.42 2.15v.14h2.58V93c-.21-.21-.42-.49-.42-2.16V89.7zm-86.73 29.5c.21.21.42.49.42 2.15v.96h-3.57v-.97c0-1.67.21-1.95.42-2.16v-.14h-2.58v.14c.21.21.42.49.42 2.15v3.11c0 1.66-.21 1.94-.42 2.15v.14h2.58v-.14c-.21-.21-.42-.49-.42-2.16v-1.16h3.57v1.16c0 1.67-.21 1.94-.42 2.15v.14h2.58v-.14c-.21-.21-.42-.49-.42-2.15v-3.11c0-1.67.21-1.95.42-2.16v-.14h-2.58v.14zm3.85-28.34c0 1.66-.21 1.94-.42 2.15v.14h2.58v-.14c-.21-.21-.42-.49-.42-2.16v-3.11c0-1.67.21-1.95.42-2.16v-.14h-2.01l-2.86 4.24c-.38.56-.69 1-.99 1.75h-.08c.11-.79.11-1.28.11-2.03v-1.66c0-1.67.21-1.95.42-2.16v-.14h-2.58v.14c.21.21.42.49.42 2.15v3.11c0 1.66-.21 1.94-.42 2.15v.14h2.02l2.86-4.25c.38-.56.69-1 1-1.75h.08c-.11.79-.11 1.28-.11 2.03v1.67zm-8.19 18.95c-.21-.21-.42-.49-.42-2.16v-1.17h3.57v1.16c0 1.66-.21 1.94-.42 2.15v.14h2.58v-.14c-.21-.21-.42-.49-.42-2.16v-3.11c0-1.67.21-1.95.42-2.16v-.14h-2.58v.14c.21.21.42.49.42 2.15v.97h-3.57v-.97c0-1.67.21-1.95.42-2.16v-.14h-2.58v.14c.21.21.42.49.42 2.16v3.11c0 1.66-.21 1.94-.42 2.15v.14h2.58v-.14zM87.34 108c0-1.05-.87-1.91-2.28-1.96v-.09c1.14-.07 1.94-.83 1.94-1.81 0-1.16-.77-1.88-2.536-1.88h-4.7v.14c.21.21.42.49.42 2.16v3.11c0 1.66-.21 1.94-.42 2.15v.15h4.93c1.836 0 2.65-.77 2.65-1.98zm-5.47-4.81h2.06c.91 0 1.34.4 1.34 1.19 0 .78-.43 1.16-1.342 1.16h-2.06v-2.36zm0 5.85v-2.58h2.25c.97 0 1.43.433 1.43 1.273 0 .824-.46 1.3-1.43 1.3h-2.25zm46.17-1.37v-.48h2.35c2.118 0 3.11-1.01 3.11-2.47s-.992-2.464-3.11-2.464h-4.51v.14c.21.21.42.49.42 2.16v3.11c0 1.66-.21 1.94-.42 2.15v.14h2.678v-.14c-.28-.21-.52-.42-.52-2.157zm0-4.43H130c1.104 0 1.61.5 1.61 1.48s-.507 1.487-1.61 1.487h-1.965v-2.97zM83.95 123.3c-.38.56-.69 1.008-1 1.75h-.08c.11-.783.11-1.273.11-2.03v-1.667c0-1.67.21-1.95.42-2.16v-.14h-2.58v.14c.21.21.42.49.42 2.156v3.11c0 1.66-.21 1.94-.42 2.15v.14h2.016l2.857-4.25c.38-.56.69-1.01.997-1.75h.082c-.11.78-.11 1.27-.11 2.03v1.66c0 1.67-.21 1.95-.42 2.16v.14h2.58v-.14c-.21-.21-.42-.49-.42-2.16v-3.11c0-1.67.21-1.95.42-2.16v-.14H86.8l-2.85 4.24zm83.57-16.8c-.38.56-.69 1.01-.995 1.75h-.083c.11-.784.11-1.274.11-2.03v-1.667c0-1.67.215-1.95.425-2.16v-.14h-2.58v.14c.21.21.42.49.42 2.154v3.11c0 1.67-.21 1.95-.42 2.16v.14h2.02l2.86-4.245c.38-.56.69-1.01 1-1.75h.09c-.11.79-.11 1.28-.11 2.03v1.67c0 1.67-.21 1.95-.42 2.16v.14h2.58v-.14c-.21-.21-.42-.49-.42-2.155v-3.11c0-1.664.21-1.943.42-2.154v-.14h-2.02l-2.852 4.244zm-56.71 13.9h.14c.755-.224 1.79-.364 2.646-.364h.14v4.43c0 1.67-.21 1.95-.42 2.16v.14h2.577v-.14c-.21-.21-.42-.49-.42-2.16v-4.43h.14c.85 0 1.89.14 2.64.364h.14v-1.346h-7.59v1.344zm4.43-14.852h-4.91v1.26h4.9v-1.26zm-6.72.56c0-2.24-1.47-4.06-4.11-4.06s-4.11 1.82-4.11 4.065c0 2.24 1.47 4.06 4.1 4.06s4.106-1.82 4.106-4.06zm-6.25 0c0-1.76.38-3.01 2.14-3.01 1.76 0 2.14 1.25 2.14 3.015s-.38 3.01-2.15 3.01-2.14-1.248-2.14-3.01zm18.59 2.65c.32.42.52.84.52 1.05v.16h2.6v-.14c-.49-.38-.69-.645-1.14-1.23l-2.13-2.748 1.695-2.21c.45-.59.63-.85 1.12-1.23v-.14h-1.96v.14c0 .224-.17.603-.48 1.01l-.49.657c-.184.254-.366.506-.56.8h-.06c-.18-.293-.362-.545-.56-.798l-.49-.66c-.31-.41-.476-.79-.476-1.01v-.14h-2.61v.14c.47.38.67.64 1.12 1.23l2.03 2.6-1.85 2.35c-.46.57-.63.85-1.11 1.23v.14H118v-.15c0-.21.195-.63.52-1.05l.53-.72c.195-.27.406-.52.602-.84h.07c.183.32.393.57.59.84l.532.71zm-14.89 17.166c-1.57 0-2.09-1.104-2.09-3.01 0-1.9.52-3.01 1.94-3.01 1.29 0 1.71.813 2.005 1.95l1.6-.63c-.49-1.53-1.92-2.37-3.63-2.37-2.324 0-3.88 1.71-3.88 4.06s1.56 4.065 3.94 4.065c1.96 0 3.094-1.03 3.683-2.37l-1.206-.6c-.332.99-.99 1.92-2.364 1.92zm24.05-5.52h.14c.75-.22 1.79-.36 2.64-.36h.14v4.43c0 1.67-.21 1.95-.42 2.16v.14h2.575v-.14c-.21-.21-.42-.49-.42-2.16v-4.43h.14c.854 0 1.89.14 2.647.363h.14v-1.348H130v1.34zm-19.94-27.37v.14h2.57v-.14c-.21-.21-.42-.49-.42-2.156v-3.11c0-1.67.21-1.95.42-2.16v-.14h-6.56v.14c.21.21.42.63.42 1.668 0 1.19-.095 4.5-1.54 4.5-.1 0-.194-.02-.31-.05v1.53c.21.087.45.13.747.13 1.905 0 2.367-2.497 2.367-6.15v-.786h2.72v4.43c0 1.667-.21 1.948-.42 2.158zm37.29 27.38h.14c.75-.223 1.79-.363 2.64-.363h.14v4.43c0 1.67-.21 1.95-.42 2.16v.14h2.577v-.14c-.21-.21-.42-.49-.42-2.16v-4.42h.14c.855 0 1.89.14 2.65.37h.14v-1.34h-7.59v1.34zM44.82 102.08c-2.63 0-4.104 1.82-4.104 4.063 0 2.24 1.47 4.06 4.103 4.06s4.11-1.82 4.11-4.06c0-2.244-1.47-4.064-4.11-4.064zm0 7.073c-1.765 0-2.14-1.248-2.14-3.012s.38-3.01 2.15-3.01c1.763 0 2.14 1.25 2.14 3.01 0 1.77-.38 3.01-2.142 3.01zm10.25 0c-1.57 0-2.09-1.107-2.09-3.012s.52-3.01 1.948-3.01c1.29 0 1.71.82 2.003 1.95l1.6-.63c-.49-1.52-1.92-2.36-3.62-2.36-2.32 0-3.88 1.71-3.88 4.07 0 2.35 1.56 4.06 3.94 4.06 1.97 0 3.1-1.02 3.69-2.37l-1.2-.6c-.33.99-.99 1.92-2.36 1.92zm-3.31-18.2c0 1.735-.23 1.89-.51 2.1v.14h2.672v-.14c-.21-.21-.42-.49-.42-2.157v-3.11c0-1.66.21-1.94.42-2.15v-.14h-4.4c-1.946 0-2.94.85-2.94 2.21 0 1.22.686 1.974 2.227 2.114v.07c-1.12.01-1.59.67-1.92 1.554l-.12.35c-.27.8-.41 1.02-.67 1.26v.14h2.28c.07-.646.13-1.12.35-1.864.18-.617.45-1.066 1.44-1.066h1.59v.687zm-1.73-1.64c-.97 0-1.6-.406-1.6-1.416 0-1.02.63-1.428 1.598-1.428h1.737v2.84H50.03zM141.6 104h.082c-.11.785-.11 1.275-.11 2.03v1.67c0 1.665-.212 1.946-.422 2.155v.14h2.58v-.14c-.21-.21-.42-.49-.42-2.157v-3.11c0-1.667.21-1.946.42-2.157v-.14h-2.017l-2.86 4.25c-.376.56-.685 1.01-.993 1.75h-.085c.115-.78.115-1.27.115-2.03v-1.66c0-1.67.21-1.95.42-2.16v-.14h-2.577v.14c.21.21.42.49.42 2.15v3.11c0 1.67-.21 1.95-.42 2.16v.14h2.02l2.857-4.24c.38-.56.686-1.01.995-1.75zm-105.39 2.06v-.085c1.132-.07 1.93-.828 1.93-1.81 0-1.16-.77-1.876-2.537-1.876H30.91v.14c.21.22.42.49.42 2.16v3.11c0 1.67-.21 1.95-.42 2.16v.14h4.93c1.836 0 2.648-.77 2.648-1.98 0-1.05-.868-1.91-2.283-1.96zm-3.197-2.843h2.06c.91 0 1.344.4 1.344 1.19 0 .78-.433 1.16-1.344 1.16h-2.06v-2.35zm2.256 5.85h-2.26v-2.58h2.25c.96 0 1.43.434 1.43 1.274 0 .83-.47 1.31-1.43 1.31zm119.71-5.437h.14c.75-.225 1.79-.365 2.64-.365h.14v4.43c0 1.665-.21 1.946-.42 2.155v.14h2.58v-.14c-.21-.21-.42-.49-.42-2.158v-4.43h.14c.85 0 1.89.14 2.65.365h.14v-1.347h-7.59v1.346zm-78.12 4.02l-2.32-5.45h-1.61l-2.15 5.45c-.59 1.483-.84 1.89-1.23 2.2v.14h2.03v-.14c-.11-.17-.06-.633.26-1.6h3.45c.35.967.39 1.43.29 1.6v.14h2.55v-.14c-.37-.35-.61-.603-1.29-2.2zm-4.67-.295l.74-1.96c.25-.674.46-1.178.58-1.836h.08c.08.65.33 1.29.56 1.83l.78 1.96h-2.76zM61.4 102.43c.21.21.42.63.42 1.668 0 1.19-.1 4.496-1.54 4.496-.1 0-.2-.016-.31-.044v1.527c.21.083.45.125.74.125 1.907 0 2.37-2.494 2.37-6.15v-.785h2.714v4.43c0 1.665-.21 1.946-.42 2.155v.14h2.577v-.14c-.21-.21-.42-.49-.42-2.158v-3.11c0-1.667.21-1.946.42-2.157v-.14H61.4v.14zm13.133-12.38h4.902v-1.263h-4.902v1.262zm70.255 29.186c.1.266-.056.615-.644 1.723l-.406.77c-.292.56-.57 1.14-.74 1.8h-.083c-.168-.66-.49-1.24-.8-1.81l-.405-.77c-.59-1.12-.77-1.46-.672-1.73v-.14h-2.41v.14c.393.28.59.6 1.205 1.72l2.172 3.95c-.21.35-.617.66-1.163.66-.376 0-.712-.09-1.034-.3l-.56 1.35c.32.22.825.38 1.44.38 1.19 0 1.962-.73 2.72-2.11l2.155-3.95c.605-1.11.786-1.44 1.15-1.72v-.14h-1.92v.14zm8.927-11.394l-1.205-.602c-.336.994-.994 1.92-2.367 1.92-1.568 0-2.086-1.107-2.086-3.012 0-1.906.516-3.012 1.944-3.012 1.29 0 1.71.813 2.01 1.946l1.6-.63c-.49-1.527-1.92-2.367-3.63-2.367-2.32 0-3.88 1.71-3.88 4.063 0 2.353 1.56 4.062 3.94 4.062 1.96 0 3.1-1.022 3.69-2.368zM72.72 89.348c0-2.24-1.47-4.063-4.103-4.063s-4.104 1.82-4.104 4.063 1.47 4.062 4.104 4.062 4.104-1.82 4.104-4.062zm-4.103 3.01c-1.765 0-2.143-1.245-2.143-3.01s.378-3.013 2.143-3.013c1.765 0 2.143 1.246 2.143 3.012s-.38 3.012-2.143 3.012zm33.436-39.055h2.375l-6.125-14.5h-2.25l-6.125 14.5h2.313l1.28-3.188h7.25l1.29 3.188zm-7.838-4.938l2.9-7.25 2.938 7.25h-5.838zm50.775-3c0-4.25-3.125-6.813-7.125-6.813s-7.125 2.563-7.125 6.813c0 2.625 1.25 5 3.625 6.313l-3.313-.25v1.875h5.813v-1.688c-2.313-1.313-3.938-3.563-3.938-6.25 0-2.75 1.875-4.937 4.938-4.937s4.938 2.187 4.938 4.937c0 2.688-1.625 4.938-3.938 6.25v1.688h5.813v-1.875l-3.313.25c2.375-1.313 3.625-3.687 3.625-6.313zm-10.062 15.938l.75.75 1.756-.11c-1.203 1.003-2.088 1.894-3.068 2.548-1.625 1.07-3.625 1.88-6.313 1.88-4.688 0-7.625-2.25-9.375-3.93V30.49h10.375l1.375 1.376h1.25v-1.25l-1.063-1.063 1.063-1.062v-1.25h-1.25l-1.375 1.38h-10.375v-6.66c2.623-.47 4.625-2.64 4.625-5.4s-2.002-4.94-4.625-5.4v-6.6l1.25-1.25V2.06h-1.25l-1.062 1.063-1.063-1.063h-1.25v1.25l1.25 1.25v6.593c-2.623.468-4.625 2.644-4.625 5.406s2.002 4.93 4.625 5.4v6.65h-10.375l-1.375-1.37h-1.25v1.25l1.063 1.06-1.063 1.06v1.25h1.25l1.375-1.38h10.375v31.94c-1.75 1.68-4.688 3.93-9.375 3.93-2.688 0-4.688-.81-6.313-1.87-.98-.65-1.865-1.54-3.068-2.55l1.756.11.75-.75-.75-.75h-4.438v4.37l.813.81.813-.81-.1-1.69c1.22 1.44 2.21 2.23 3.61 3.12 1.82 1.13 4.07 1.88 6.94 1.88 3 0 6.53-.9 9.38-3.45v2.26l-1.25 1.25v1.25h1.25l1.07-1.06 1.06 1.06h1.25V68.3l-1.25-1.25v-2.266c2.85 2.556 6.38 3.455 9.38 3.455 2.88 0 5.13-.75 6.94-1.88 1.4-.89 2.39-1.69 3.61-3.13l-.1 1.69.81.81.81-.81v-4.37h-4.44l-.75.75zm-16.25-48.553c1.7.44 2.875 1.925 2.875 3.803 0 1.88-1.176 3.364-2.875 3.804V12.75zm-2.125 7.606c-1.698-.44-2.875-1.925-2.875-3.804 0-1.878 1.177-3.364 2.875-3.803v7.6z" fill="#231F20"/></svg>
