<svg version="1.1" id="Слой_1" xmlns="http://www.w3.org/2000/svg" x="0" y="0" viewBox="0 0 235.2 129.1" style="enable-background:new 0 0 235.2 129.1" xml:space="preserve"><style>.st0{fill:#1d1d1b}</style><path class="st0" d="M116.6 26.1a4.2 4.2 0 0 1-3.1-4.1c0-2 1.3-3.6 3.1-4.1v8.2zm2.3-8.1c1.8.5 3.1 2.1 3.1 4.1 0 2-1.3 3.6-3.1 4.1V18zm17.4 52 .8.8 1.9-.1c-1.3 1.1-2.2 2-3.3 2.7-1.7 1.1-3.9 2-6.8 2-5 0-8.2-2.4-10.1-4.2V37H130l1.5 1.5h1.3v-1.3l-1.1-1.1 1.1-1.1v-1.3h-1.3L130 35h-11.1v-7.1c2.8-.5 5-2.8 5-5.8s-2.1-5.3-5-5.8V9.2l1.3-1.3V6.5h-1.3l-1.1 1.1-1.1-1.1h-1.3v1.3l1.3 1.3v7.1c-2.8.5-5 2.8-5 5.8s2.1 5.3 5 5.8V35h-11.1l-1.5-1.5h-1.3v1.3l1.1 1.1-1.1 1.1v1.3h1.3l1.5-1.5h11.1V71c-1.9 1.8-5 4.2-10.1 4.2-2.9 0-5-.9-6.8-2-1.1-.7-2-1.7-3.3-2.7l1.9.1.8-.8-.8-.8h-4.8v4.7l.9.9.9-.9-.1-1.8c1.3 1.5 2.4 2.4 3.9 3.4 1.9 1.2 4.4 2 7.4 2 3.2 0 7-1 10.1-3.7V76l-1.3 1.3v1.3h1.3l1.1-1.1 1.1 1.1h1.3v-1.3l-1.3-1.3v-2.4c3.1 2.7 6.8 3.7 10.1 3.7 3.1 0 5.5-.8 7.4-2 1.5-1 2.6-1.8 3.9-3.4l-.1 1.8.9.9.9-.9V69h-4.8l-.9 1zm10.8-17c0-4.6-3.3-7.3-7.6-7.3s-7.6 2.7-7.6 7.3c0 2.8 1.3 5.4 3.9 6.8l-3.5-.3v2h6.2v-1.8c-2.5-1.4-4.2-3.8-4.2-6.7 0-2.9 2-5.3 5.3-5.3s5.3 2.3 5.3 5.3c0 2.9-1.7 5.3-4.2 6.7v1.8h6.2v-2l-3.5.3c2.4-1.5 3.7-4 3.7-6.8m-54.4 3.2 3.1-7.8 3.1 7.8h-6.2zm8.4 5.3h2.6L97.1 46h-2.4l-6.6 15.5h2.5l1.4-3.4h7.8l1.3 3.4zM64.6 93.5c2.7 0 4.3 1.3 4.3 3.2l-1.8.2c0-1.3-.8-2.2-2.5-2.2-1.2 0-2 .5-2 1.5 0 2.7 6.7 1 6.7 5.2 0 1.8-1.4 3.1-4.4 3.1-2.8 0-4.7-1.1-4.8-3.7l1.8-.2c.1 1.8 1 2.7 3 2.7 1.6 0 2.6-.4 2.6-1.5 0-2.7-6.7-.8-6.7-5.3 0-1.7 1.4-3 3.8-3M75.9 97v4.7c0 1.8.2 2.1.5 2.3v.2h-2.8v-.2c.2-.2.5-.5.5-2.3V97h-.2c-.9 0-2 .2-2.8.4H71V96h8.1v1.4H79c-.9-.2-2-.4-2.9-.4h-.2zM92 94.9h-2.7v4.2H92c1.6 0 2.3-.7 2.3-2.1s-.7-2.1-2.3-2.1m-5.1 9.3v-.2c.2-.2.5-.5.5-2.3v-5.6c0-1.8-.2-2.1-.5-2.3v-.2h5.6c2.8 0 4 1.4 4 3.3s-1.3 3.3-4 3.3h-3.2v1.4c0 1.7.3 2 .6 2.3v.2h-3zM105.1 100.5h-3.8v1.2c0 1.8.2 2.1.5 2.3v.2H99v-.2c.2-.2.5-.5.5-2.3v-3.3c0-1.8-.2-2.1-.5-2.3V96h2.8v.1c-.2.2-.5.5-.5 2.3v1h3.8v-1c0-1.8-.2-2.1-.5-2.3V96h2.8v.1c-.2.2-.5.5-.5 2.3v3.3c0 1.8.2 2.1.5 2.3v.2h-2.8v-.2c.2-.2.5-.5.5-2.3v-1.2zM110.7 98.5c0-1.8-.2-2.1-.5-2.3V96h2.8v.1c-.2.2-.5.5-.5 2.3v3.3c0 1.8.2 2.1.5 2.3v.2h-2.8v-.2c.2-.2.5-.5.5-2.3v-3.2zM116.3 98.5c0-1.8-.2-2.1-.5-2.3V96h2.8v.1c-.2.2-.5.5-.5 2.3v4.7h.1c1.6 0 2.5-.1 4-.4h.2v1.4h-6.6v-.2c.2-.2.5-.5.5-2.3v-3.1zM126.3 101.4h3l-.8-2.1c-.2-.6-.5-1.3-.6-2h-.1c-.1.7-.4 1.2-.6 2l-.9 2.1zm3.3 1h-3.7c-.3 1-.4 1.5-.3 1.7v.2h-2.2v-.2c.4-.3.7-.8 1.3-2.4l2.3-5.8h1.7l2.5 5.8c.7 1.7 1 2 1.4 2.4v.2h-2.7v-.2c.1-.2.1-.7-.3-1.7M136.7 97v2.8h2.2c1 0 1.5-.5 1.5-1.4 0-.9-.5-1.4-1.5-1.4h-2.2zm-1.9 1.5c0-1.8-.2-2.1-.5-2.3V96h5c2.1 0 3 .9 3 2.3 0 1.2-.8 2.1-2.5 2.2v.1c1.2 0 1.7.7 2 1.8l.2.5c.3.9.4 1.1.7 1.4v.2h-2.4c-.1-.7-.2-1.3-.4-2.1s-.5-1.2-1.5-1.2h-1.7v1c0 1.9.3 2 .6 2.3v.2h-2.9v-.2c.2-.2.5-.5.5-2.3v-3.7zM150.6 100.9c-.8-.3-2.1-.3-3.1-.3h-.2v2.7h.5c1.9 0 2.8-.1 4.3-.4h.1v1.4H145v-.2c.2-.2.5-.5.5-2.3v-3.3c0-1.8-.2-2.1-.5-2.3V96h6.9v1.4h-.1c-1.5-.3-2.4-.4-4.3-.4h-.2v2.4h.2c1 0 2.3 0 3.1-.3h.1v1.7h-.1zM158.7 97v4.7c0 1.8.2 2.1.5 2.3v.2h-2.8v-.2c.2-.2.5-.5.5-2.3V97h-.2c-.9 0-2 .2-2.8.4h-.2V96h8.1v1.4h-.1c-.8-.2-1.9-.4-2.8-.4h-.2zM163.7 96.9c.9-.2 1.3-.7 1.3-1.5-1 0-1.4-.2-1.4-.9 0-.6.4-.9 1.2-.9.9 0 1.3.5 1.3 1.4 0 1.2-.8 2.1-2.4 2.4v-.5zM171.2 95.8c2.2 0 3.5 1 3.5 2.5l-1.6.2c-.1-1-.7-1.5-1.9-1.5-1 0-1.6.3-1.6 1 0 2 5.5.7 5.5 4 0 1.5-1.2 2.6-3.6 2.6-2.2 0-3.7-.7-4.1-2.9l1.7-.2c.2 1.5 1 1.9 2.4 1.9 1.1 0 2-.2 2-1.1 0-2-5.5-.5-5.5-4-.1-1.5 1.1-2.5 3.2-2.5"/><g><path class="st0" d="M81 119.9c0 1.8.2 2.1.5 2.3v.2h-2.9v-.2c.2-.2.5-.5.5-2.3v-5.6c0-1.8-.2-2.1-.5-2.3v-.2h2.9v.2c-.2.2-.5.5-.5 2.3v5.6zM90.8 116.6c0-1.8-.2-2.1-.5-2.3v-.1h2.3v.1c-.2.2-.5.5-.5 2.3v5.8H91l-3.9-4.9c-.4-.5-.7-1.1-1-1.7H86c.1.7.2 1.5.2 2.1v2.1c0 1.8.3 2.1.5 2.3v.2h-2.4v-.2c.2-.2.5-.5.5-2.3v-3.3c0-1.8-.2-2.1-.5-2.3v-.1h2.4l3.2 4c.4.5.7 1 1 1.7h.1c-.1-.7-.2-1.5-.2-2.1v-1.3zM98.7 113.9c2.2 0 3.5 1 3.5 2.5l-1.6.2c-.1-1-.7-1.5-1.9-1.5-1 0-1.6.3-1.6 1 0 2 5.5.7 5.5 4 0 1.5-1.2 2.6-3.6 2.6-2.2 0-3.7-.7-4.1-2.9l1.7-.2c.2 1.5 1 1.9 2.4 1.9 1.1 0 2-.2 2-1.1 0-2-5.5-.5-5.5-4-.1-1.5 1.1-2.5 3.2-2.5M109.3 115.2v4.7c0 1.8.2 2.1.4 2.3v.2H107v-.2c.2-.2.4-.5.4-2.3v-4.7h-.1c-.9 0-2 .1-2.8.4h-.2v-1.4h8.1v1.4h-.2c-.8-.2-1.9-.4-2.8-.4h-.1zM114.8 116.6c0-1.8-.2-2.1-.5-2.3v-.1h2.8v.1c-.2.2-.5.5-.5 2.3v3.3c0 1.8.2 2.1.5 2.3v.2h-2.8v-.2c.2-.2.5-.5.5-2.3v-3.3zM124.1 115.2v4.7c0 1.8.2 2.1.5 2.3v.2h-2.8v-.2c.2-.2.5-.5.5-2.3v-4.7h-.3c-.9 0-2 .1-2.8.4h-.2v-1.4h8.1v1.4h-.1c-.8-.2-1.9-.4-2.8-.4h-.1zM135.5 116.6c0-1.8-.3-2.1-.5-2.3v-.1h2.4v.1c-.2.2-.5.5-.5 2.3v2.6c0 2.3-1.3 3.5-3.7 3.5-2.3 0-3.6-1.2-3.6-3.5v-2.6c0-1.8-.2-2.1-.5-2.3v-.1h2.8v.1c-.2.2-.5.5-.5 2.3v2.5c0 1.6.4 2.4 2 2.4s2-.9 2-2.4v-2.5zM144.2 115.2v4.7c0 1.8.2 2.1.5 2.3v.2h-2.8v-.2c.2-.2.5-.5.5-2.3v-4.7h-.2c-.9 0-2 .1-2.8.4h-.2v-1.4h8.1v1.4h-.2c-.8-.2-1.9-.4-2.8-.4h-.1zM154.9 119c-.8-.3-2.1-.3-3.1-.3h-.2v2.7h.4c1.9 0 2.8-.1 4.3-.4h.2v1.4h-7.2v-.2c.2-.2.5-.5.5-2.3v-3.3c0-1.8-.2-2.1-.5-2.3v-.1h6.9v1.4h-.2c-1.5-.3-2.4-.4-4.3-.4h-.2v2.4h.2c1 0 2.2 0 3.1-.3h.2v1.7h-.1z"/></g></svg>
