<svg version="1.1" id="Слой_1" xmlns="http://www.w3.org/2000/svg" x="0" y="0" viewBox="0 0 235.2 129.1" xml:space="preserve"><style>.st0{fill:#231f20}</style><path class="st0" d="M102.2 53.3h2.4l-6.2-14.6h-2.3L90 53.3h2.3l1.3-3.2h7.3l1.3 3.2zm-7.9-5l2.9-7.3 2.9 7.3h-5.8zm51-3c0-4.3-3.1-6.8-7.2-6.8-4 0-7.2 2.6-7.2 6.8 0 2.6 1.3 5 3.6 6.3l-3.3-.3v1.9h5.8v-1.7c-2.3-1.3-4-3.6-4-6.3 0-2.8 1.9-5 5-5s5 2.2 5 5c0 2.7-1.6 5-4 6.3v1.7h5.8v-1.9l-3.3.3c2.5-1.3 3.8-3.6 3.8-6.3zm-10.1 16l.8.8 1.8-.1c-1.2 1-2.1 1.9-3.1 2.6-1.6 1.1-3.6 1.9-6.3 1.9-4.7 0-7.7-2.3-9.4-4V30.4h10.4l1.4 1.4h1.3v-1.3l-1.1-1.1 1.1-1.1V27h-1.3l-1.4 1.4H119v-6.7c2.6-.5 4.6-2.7 4.6-5.4 0-2.8-2-5-4.6-5.4V4.3l1.3-1.3V1.8H119l-1.1 1.1-1.1-1.1h-1.3v1.3l1.3 1.3V11c-2.6.5-4.6 2.7-4.6 5.4 0 2.8 2 5 4.6 5.4v6.7h-10.4l-1.4-1.4h-1.3v1.3l1.1 1.1-1.1 1.1v1.3h1.3l1.4-1.4h10.4v32.1c-1.8 1.7-4.7 4-9.4 4-2.7 0-4.7-.8-6.3-1.9-1-.7-1.9-1.6-3.1-2.6l1.8.1.8-.8-.8-.8h-4.5V65l.8.8.8-.8-.1-1.7c1.2 1.5 2.2 2.2 3.6 3.1 1.8 1.1 4.1 1.9 7 1.9 3 0 6.6-.9 9.4-3.5v2.3l-1.3 1.3v1.3h1.3l1.1-1.1 1.1 1.1h1.3v-1.3l-1.3-1.3v-2.3c2.9 2.6 6.4 3.5 9.4 3.5 2.9 0 5.1-.8 7-1.9 1.4-.9 2.4-1.7 3.6-3.1l-.1 1.7.8.8.8-.8v-4.4H136l-.8.7zm-16.3-48.7c1.7.4 2.9 1.9 2.9 3.8s-1.2 3.4-2.9 3.8v-7.6zm-2.2 7.6c-1.7-.4-2.9-1.9-2.9-3.8s1.2-3.4 2.9-3.8v7.6zM66 83.3c2.5 0 4 1.2 4 3l-1.7.2c0-1.2-.8-2-2.3-2-1.1 0-1.9.5-1.9 1.4 0 2.5 6.3.9 6.3 4.8 0 1.7-1.3 2.9-4.1 2.9-2.6 0-4.4-1.1-4.5-3.4l1.7-.2c.1 1.7.9 2.5 2.8 2.5 1.5 0 2.4-.4 2.4-1.4 0-2.5-6.3-.8-6.3-4.9 0-1.7 1.3-2.9 3.6-2.9zM76.6 86.6V91c0 1.7.2 2 .4 2.2v.1h-2.6v-.1c.2-.2.4-.5.4-2.2v-4.4h-.1c-.9 0-1.9.1-2.7.4h-.1v-1.3h7.6V87h-.1c-.8-.2-1.8-.4-2.7-.4h-.1zM81.7 91.4c.8 0 1.2.3 1.2 1.1s-.4 1.1-1.2 1.1-1.2-.3-1.2-1.1.5-1.1 1.2-1.1zM90.1 93.3c.2-.3.4-.6.4-2.3v-5.2c0-1.7-.2-2-.4-2.2v-.1h5.2c2.6 0 3.8 1.3 3.8 3.1s-1.2 3.1-3.8 3.1h-3V91c0 1.6.2 1.9.5 2.2v.1h-2.7zm4.8-8.7h-2.5v3.9h2.5c1.5 0 2.2-.7 2.2-2 0-1.2-.7-1.9-2.2-1.9zM107.1 89.9h-3.6V91c0 1.7.2 2 .4 2.2v.1h-2.6v-.1c.2-.2.4-.5.4-2.2v-3.1c0-1.7-.2-2-.4-2.2v-.1h2.6v.1c-.2.2-.4.5-.4 2.2v1h3.6v-1c0-1.7-.2-2-.4-2.2v-.1h2.6v.1c-.2.2-.4.5-.4 2.2V91c0 1.7.2 2 .4 2.2v.1h-2.6v-.1c.2-.2.4-.5.4-2.2v-1.1zM112.4 87.9c0-1.7-.2-2-.4-2.2v-.1h2.6v.1c-.2.2-.4.5-.4 2.2V91c0 1.7.2 2 .4 2.2v.1H112v-.1c.2-.2.4-.5.4-2.2v-3.1zM117.6 87.9c0-1.7-.2-2-.4-2.2v-.1h2.6v.1c-.2.2-.4.5-.4 2.2v4.4h.1c1.5 0 2.4-.1 3.8-.4h.1v1.4h-6.2v-.1c.2-.2.4-.5.4-2.2v-3.1zM130.1 91.6h-3.5c-.3 1-.4 1.4-.3 1.6v.1h-2v-.1c.4-.3.6-.7 1.2-2.2l2.2-5.5h1.6l2.3 5.5c.7 1.6.9 1.9 1.3 2.2v.1h-2.6v-.1c.2-.2.1-.6-.2-1.6zm-3.1-.9h2.8l-.8-2c-.2-.5-.5-1.2-.6-1.8h-.1c-.1.7-.3 1.2-.6 1.8l-.7 2zM135 87.9c0-1.7-.2-2-.4-2.2v-.1h4.7c2 0 2.8.9 2.8 2.1 0 1.1-.7 1.9-2.4 2v.1c1.2 0 1.6.7 1.9 1.6l.2.5c.3.8.4 1 .7 1.3v.1h-2.3c-.1-.6-.2-1.3-.4-2s-.4-1.2-1.4-1.2h-1.6v.9c0 1.7.2 1.9.5 2.1v.1h-2.7v-.1c.2-.2.4-.5.4-2.2v-3zm1.7-1.3v2.6h2.1c.9 0 1.4-.4 1.4-1.3s-.5-1.3-1.4-1.3h-2.1zM149.7 90.2c-.8-.3-1.9-.3-2.9-.3h-.1v2.5h.4c1.8 0 2.7-.1 4-.4h.1v1.4h-6.8v-.1c.2-.2.4-.5.4-2.2V88c0-1.7-.2-2-.4-2.2v-.1h6.5V87h-.1c-1.4-.3-2.3-.4-4.1-.4h-.1v2.3h.1c1 0 2.1 0 2.9-.3h.1v1.6zM157.4 86.6V91c0 1.7.2 2 .4 2.2v.1h-2.6v-.1c.2-.2.4-.5.4-2.2v-4.4h-.1c-.9 0-1.9.1-2.7.4h-.1v-1.3h7.6V87h-.1c-.8-.2-1.8-.4-2.8-.4zM162 86.4c.8-.1 1.2-.7 1.2-1.5-1 0-1.3-.2-1.3-.8 0-.6.4-.9 1.1-.9.9 0 1.2.4 1.2 1.4 0 1.1-.7 2-2.3 2.2v-.4h.1zM169 85.4c2 0 3.3.9 3.3 2.3l-1.5.2c-.1-.9-.6-1.4-1.8-1.4-.9 0-1.5.3-1.5 1 0 1.9 5.2.6 5.2 3.8 0 1.4-1.1 2.4-3.4 2.4-2.1 0-3.5-.7-3.8-2.7l1.6-.2c.2 1.4.9 1.8 2.2 1.8 1 0 1.8-.2 1.8-1 0-1.8-5.1-.5-5.1-3.8 0-1.5 1.1-2.4 3-2.4zM124.6 105.3c0 2.6.8 4 3 4 1.8 0 2.6-1.3 3-2.6l1.5.7c-.7 1.7-2.2 3-4.7 3-3 0-5-2.2-5-5.1 0-3 2-5.1 4.9-5.1 2.2 0 3.9 1.1 4.6 3l-1.9.8c-.4-1.6-1-2.7-2.6-2.7-2 0-2.8 1.4-2.8 4zM140 106.7h-3.6v1.2c0 1.7.2 2 .4 2.2v.1h-2.6v-.1c.2-.2.4-.5.4-2.2v-3.1c0-1.7-.2-2-.4-2.2v-.1h2.6v.1c-.2.2-.4.5-.4 2.2v1h3.6v-1c0-1.7-.2-2-.4-2.2v-.1h2.6v.1c-.2.2-.4.5-.4 2.2v3.1c0 1.7.2 2 .4 2.2v.1h-2.6v-.1c.2-.2.4-.5.4-2.2v-1.2zM145.2 104.8c0-1.7-.2-2-.4-2.2v-.1h4.7c2 0 2.8.9 2.8 2.1 0 1.1-.7 1.9-2.4 2v.1c1.2 0 1.6.7 1.9 1.6l.2.5c.3.8.4 1 .7 1.3v.1h-2.3c-.1-.6-.2-1.3-.4-2s-.4-1.2-1.4-1.2H147v.9c0 1.7.2 1.9.5 2.1v.1h-2.7v-.1c.2-.2.4-.5.4-2.2v-3zm1.8-1.3v2.6h2.1c.9 0 1.4-.4 1.4-1.3s-.5-1.3-1.4-1.3H147zM155.2 104.8c0-1.7-.2-2-.4-2.2v-.1h2.6v.1c-.2.2-.4.5-.4 2.2v3.1c0 1.7.2 2 .4 2.2v.1h-2.6v-.1c.2-.2.4-.5.4-2.2v-3.1zM163 102.3c2 0 3.3.9 3.3 2.3l-1.5.2c-.1-.9-.6-1.4-1.8-1.4-.9 0-1.5.3-1.5 1 0 1.9 5.2.6 5.2 3.8 0 1.4-1.1 2.4-3.4 2.4-2.1 0-3.5-.7-3.8-2.7l1.6-.2c.2 1.4.9 1.8 2.2 1.8 1 0 1.8-.2 1.8-1 0-1.8-5.1-.5-5.1-3.8-.1-1.5 1-2.4 3-2.4zM172.9 103.5v4.4c0 1.7.2 2 .4 2.2v.1h-2.6v-.1c.2-.2.4-.5.4-2.2v-4.4h-.1c-.9 0-1.9.1-2.7.4h-.1v-1.4h7.6v1.4h-.1c-.8-.2-1.8-.4-2.7-.4h-.1zM178.1 104.8c0-1.7-.2-2-.4-2.2v-.1h2.6v.1c-.2.2-.4.5-.4 2.2v3.1c0 1.7.2 2 .4 2.2v.1h-2.6v-.1c.2-.2.4-.5.4-2.2v-3.1zM187.6 108.5h-3.5c-.3 1-.4 1.4-.3 1.6v.1h-2v-.1c.4-.3.6-.7 1.2-2.2l2.1-5.5h1.6l2.3 5.5c.7 1.6.9 1.9 1.3 2.2v.1h-2.6v-.1c.3-.2.3-.7-.1-1.6zm-3.1-.9h2.8l-.8-2c-.2-.5-.5-1.2-.6-1.8h-.1c-.1.7-.3 1.2-.6 1.8l-.7 2zM198.2 104.8c0-1.7-.2-2-.4-2.2v-.1h2.1v.1c-.2.2-.4.5-.4 2.2v5.4h-1.1l-3.7-4.6c-.4-.5-.7-1-1-1.6h-.1c.1.7.1 1.4.1 2v2c0 1.7.3 2 .5 2.2v.1H192v-.1c.2-.2.4-.5.4-2.2v-3.1c0-1.7-.2-2-.4-2.2v-.1h2.2l3 3.7c.4.5.7 1 1 1.6h.1c-.1-.7-.1-1.4-.1-2v-1.1zM40.5 100.2c3.2 0 5.1 2.3 5.1 5.1s-1.9 5.1-5.1 5.1c-3.2 0-5.1-2.3-5.1-5.1s1.8-5.1 5.1-5.1zm0 1.1c-2.4 0-3 1.7-3 4s.6 4 3 4 3-1.7 3-4c-.1-2.3-.7-4-3-4zM48.4 104.8c0-1.7-.2-2-.4-2.2v-.1h4.7c2 0 2.8.9 2.8 2.1 0 1.1-.7 1.9-2.4 2v.1c1.2 0 1.6.7 1.9 1.6l.2.5c.3.8.4 1 .7 1.3v.1h-2.3c-.1-.6-.2-1.3-.4-2s-.4-1.2-1.4-1.2h-1.6v.9c0 1.7.2 1.9.5 2.1v.1H48v-.1c.2-.2.4-.5.4-2.2v-3zm1.7-1.3v2.6h2.1c.9 0 1.4-.4 1.4-1.3s-.5-1.3-1.4-1.3h-2.1zM61.7 103.5v4.4c0 1.7.2 2 .4 2.2v.1h-2.6v-.1c.2-.2.4-.5.4-2.2v-4.4h-.1c-.9 0-1.9.1-2.7.4H57v-1.4h7.6v1.4h-.1c-.8-.2-1.8-.4-2.7-.4h-.1zM72.3 106.7h-3.6v1.2c0 1.7.2 2 .4 2.2v.1h-2.6v-.1c.2-.2.4-.5.4-2.2v-3.1c0-1.7-.2-2-.4-2.2v-.1h2.6v.1c-.2.2-.4.5-.4 2.2v1h3.6v-1c0-1.7-.2-2-.4-2.2v-.1h2.6v.1c-.2.2-.4.5-.4 2.2v3.1c0 1.7.2 2 .4 2.2v.1h-2.6v-.1c.2-.2.4-.5.4-2.2v-1.2zM80.9 110.4c-2.6 0-4.1-1.8-4.1-4.1 0-2.2 1.5-4.1 4.1-4.1 2.6 0 4.1 1.8 4.1 4.1s-1.4 4.1-4.1 4.1zm0-7.1c-1.8 0-2.2 1.3-2.2 3 0 1.8.4 3 2.2 3s2.2-1.3 2.2-3-.4-3-2.2-3zM87.4 110.2c.2-.3.4-.6.4-2.3v-3.1c0-1.7-.2-2-.4-2.2v-.1h3.4c2.8 0 4.4 1.4 4.4 3.9s-1.6 3.9-4.4 3.9h-3.4v-.1zm2.2-6.7v5.8h1.2c1.8 0 2.4-1 2.4-2.9s-.6-2.9-2.4-2.9h-1.2zM101.4 110.4c-2.6 0-4.1-1.8-4.1-4.1 0-2.2 1.5-4.1 4.1-4.1 2.6 0 4.1 1.8 4.1 4.1.1 2.3-1.4 4.1-4.1 4.1zm0-7.1c-1.8 0-2.2 1.3-2.2 3 0 1.8.4 3 2.2 3s2.1-1.3 2.1-3c.1-1.7-.3-3-2.1-3zM110.1 106.5l-2-2.6c-.4-.6-.6-.9-1.1-1.2v-.1h2.6v.1c0 .2.2.6.5 1l.5.7c.2.3.4.5.6.8h.1c.2-.3.4-.6.6-.8l.5-.7c.3-.4.5-.8.5-1v-.1h2v.1c-.5.4-.7.6-1.1 1.2l-1.7 2.2 2.1 2.8c.4.6.6.9 1.1 1.2v.1h-2.6v-.2c0-.2-.2-.6-.5-1.1l-.5-.7c-.2-.3-.4-.5-.6-.8h-.1c-.2.3-.4.6-.6.8l-.5.7c-.3.4-.5.8-.5 1.1v.2h-2v-.1c.5-.4.6-.7 1.1-1.2l1.6-2.4zM83.3 124.8c0 1.7.2 2 .4 2.2v.1H81v-.1c.2-.2.4-.5.4-2.2v-5.2c0-1.7-.2-2-.4-2.2v-.1h2.7v.1c-.2.2-.4.5-.4 2.2v5.2zM92.5 121.6c0-1.7-.2-2-.4-2.2v-.1h2.1v.1c-.2.2-.4.5-.4 2.2v5.4h-1.1l-3.7-4.6c-.4-.5-.7-1-1-1.6.1.7.1 1.4.1 2v2c0 1.7.3 2 .5 2.2v.1h-2.2v-.1c.2-.2.4-.5.4-2.2v-3.1c0-1.7-.2-2-.4-2.2v-.1h2.2l3 3.7c.4.5.7 1 1 1.6h.1c-.1-.7-.1-1.4-.1-2v-1.1h-.1zM99.9 119.1c2 0 3.3.9 3.3 2.3l-1.5.2c-.1-.9-.6-1.4-1.8-1.4-.9 0-1.5.3-1.5 1 0 1.9 5.2.6 5.2 3.8 0 1.4-1.1 2.4-3.4 2.4-2.1 0-3.5-.7-3.8-2.7l1.6-.2c.2 1.4.9 1.8 2.2 1.8 1 0 1.8-.2 1.8-1 0-1.8-5.1-.5-5.1-3.8-.1-1.4 1-2.4 3-2.4zM109.8 120.3v4.4c0 1.7.2 2 .4 2.2v.1h-2.6v-.1c.2-.2.4-.5.4-2.2v-4.4h-.1c-.9 0-1.9.1-2.7.4h-.1v-1.4h7.6v1.4h-.1c-.8-.2-1.8-.4-2.7-.4h-.1zM115 121.6c0-1.7-.2-2-.4-2.2v-.1h2.6v.1c-.2.2-.4.5-.4 2.2v3.1c0 1.7.2 2 .4 2.2v.1h-2.6v-.1c.2-.2.4-.5.4-2.2v-3.1zM123.6 120.3v4.4c0 1.7.2 2 .4 2.2v.1h-2.6v-.1c.2-.2.4-.5.4-2.2v-4.4h-.1c-.9 0-1.9.1-2.7.4h-.1v-1.4h7.6v1.4h-.1c-.8-.2-1.8-.4-2.7-.4h-.1zM134.3 121.6c0-1.7-.3-2-.5-2.2v-.1h2.3v.1c-.2.2-.4.5-.4 2.2v2.4c0 2.2-1.2 3.2-3.4 3.2s-3.4-1.1-3.4-3.2v-2.4c0-1.7-.2-2-.4-2.2v-.1h2.6v.1c-.2.2-.4.5-.4 2.2v2.3c0 1.5.4 2.3 1.9 2.3s1.9-.8 1.9-2.3v-2.3h-.2zM142.5 120.3v4.4c0 1.7.2 2 .4 2.2v.1h-2.6v-.1c.2-.2.4-.5.4-2.2v-4.4h-.1c-.9 0-1.9.1-2.7.4h-.1v-1.4h7.6v1.4h-.1c-.8-.2-1.8-.4-2.8-.4zM152.5 123.9c-.8-.3-1.9-.3-2.9-.3h-.1v2.5h.4c1.8 0 2.7-.1 4-.4h.1v1.3h-6.8v-.1c.2-.2.4-.5.4-2.2v-3.1c0-1.7-.2-2-.4-2.2v-.1h6.5v1.4h-.1c-1.4-.3-2.3-.4-4-.4h-.1v2.3h.1c1 0 2.1 0 2.9-.3h.1l-.1 1.6c.1 0 0 0 0 0z"/></svg>
