<svg xmlns="http://www.w3.org/2000/svg" viewBox="0 0 510.274 80.625"><path fill="none" d="M-165.6-25.37h841.89v595.276H-165.6z"/><path d="M243.66 41.436h1.785l-4.598-10.88h-1.688l-4.6 10.88h1.73l.95-2.393h5.44l.97 2.393zm-5.88-3.706l2.177-5.44 2.203 5.44h-4.38zm38.1-2.25c0-3.19-2.344-5.112-5.346-5.112-3.004 0-5.348 1.922-5.348 5.11 0 1.972.938 3.755 2.72 4.74l-2.485-.19v1.407h4.37V40.17c-1.74-.984-2.95-2.676-2.95-4.69 0-2.064 1.41-3.706 3.71-3.706s3.71 1.643 3.71 3.705c0 2.01-1.22 3.7-2.95 4.69v1.26h4.36v-1.4l-2.48.18c1.79-.99 2.72-2.77 2.72-4.74zm-7.548 11.958l.562.562 1.314-.082c-.902.754-1.564 1.422-2.303 1.912-1.22.8-2.72 1.408-4.734 1.408-3.51 0-5.72-1.69-7.03-2.957V24.32h7.79l1.03 1.03h.94v-.937l-.79-.797.8-.797v-.94h-.94l-1.03 1.03h-7.79v-4.99c1.97-.36 3.48-1.99 3.48-4.06 0-2.07-1.5-3.71-3.47-4.06V4.85l.94-.936v-.94h-.94l-.8.797-.8-.79h-.93v.94l.94.94V9.8c-1.97.35-3.47 1.984-3.47 4.056 0 2.07 1.5 3.703 3.47 4.055v5h-7.78l-1.03-1.03h-.94v.94l.8.8-.8.8v.94h.94l1.03-1.03h7.79v23.96c-1.31 1.27-3.51 2.96-7.03 2.96-2.01 0-3.52-.6-4.74-1.4-.73-.49-1.4-1.15-2.3-1.91l1.32.08.56-.56-.56-.56h-3.33v3.28l.61.61.61-.61-.08-1.26c.92 1.09 1.66 1.68 2.7 2.35 1.36.85 3.05 1.41 5.21 1.41 2.25 0 4.9-.67 7.03-2.59v1.71l-.94.94v.94h.94l.8-.79.8.8h.94v-.94l-.94-.94V50.1c2.14 1.92 4.79 2.592 7.04 2.592 2.16 0 3.848-.565 5.21-1.41 1.044-.67 1.79-1.27 2.704-2.35l-.08 1.26.61.61.61-.61V46.9h-3.32l-.56.566zm-12.198-36.434c1.275.33 2.16 1.445 2.16 2.854 0 1.41-.885 2.524-2.16 2.854v-5.708zm-1.593 5.71c-1.27-.33-2.15-1.444-2.15-2.855 0-1.41.89-2.53 2.16-2.86v5.71zM78.53 66.574c2.502 0 3.992 1.237 4.02 2.95l-1.7.2c-.015-1.21-.76-2.024-2.32-2.024-1.137 0-1.91.503-1.91 1.39 0 2.546 6.31.9 6.31 4.835 0 1.67-1.334 2.91-4.077 2.91-2.584 0-4.354-1.068-4.538-3.442l1.73-.185c.125 1.703.927 2.502 2.808 2.502 1.52 0 2.405-.38 2.405-1.39 0-2.545-6.31-.788-6.31-4.95 0-1.627 1.307-2.796 3.583-2.796zm10.623 3.302v4.442c0 1.672.21 1.953.42 2.165v.14H86.99v-.14c.21-.212.42-.493.42-2.165v-4.442h-.14c-.858 0-1.898.14-2.656.363h-.14v-1.35h7.616v1.34h-.14c-.758-.23-1.8-.37-2.656-.37h-.14zm5.127 4.792c.76 0 1.208.31 1.208 1.084s-.45 1.08-1.21 1.08c-.758 0-1.206-.306-1.206-1.08s.45-1.084 1.207-1.084zm8.373 1.956v-.14c.212-.213.422-.494.422-2.166V69.09c0-1.673-.21-1.955-.422-2.165v-.14h5.23c2.6 0 3.78 1.277 3.78 3.09s-1.18 3.093-3.78 3.093h-2.98v1.35c0 1.6.238 1.884.52 2.165v.14h-2.77zm4.78-8.716h-2.53v3.938h2.53c1.518 0 2.178-.664 2.178-1.97s-.66-1.968-2.17-1.968zm12.224 5.244h-3.587v1.167c0 1.67.213 1.95.423 2.16v.14h-2.585v-.14c.21-.21.422-.5.422-2.17V71.2c0-1.674-.212-1.953-.422-2.168v-.138h2.585v.138c-.21.214-.423.493-.423 2.167v.96h3.587v-.97c0-1.67-.213-1.95-.425-2.17v-.14h2.587v.13c-.22.21-.43.49-.43 2.17v3.12c0 1.67.21 1.95.42 2.16v.14h-2.59v-.14c.21-.21.42-.49.42-2.17v-1.16zm5.253-1.954c0-1.673-.214-1.952-.423-2.167v-.13h2.586v.14c-.21.22-.42.5-.42 2.17v3.12c0 1.68.21 1.96.42 2.17v.14h-2.586v-.14c.21-.21.422-.49.422-2.16V71.2zm5.254 0c0-1.673-.21-1.952-.423-2.167v-.13h2.59v.14c-.21.22-.42.5-.42 2.17v4.44h.14c1.49 0 2.38-.07 3.77-.36h.14v1.35h-6.21v-.14c.21-.21.43-.49.43-2.16V71.2zm12.46 3.682h-3.457c-.323.97-.378 1.433-.267 1.603v.14h-2.037v-.14c.394-.31.647-.717 1.236-2.21l2.15-5.463h1.61l2.32 5.464c.68 1.607.92 1.858 1.29 2.21v.14h-2.56v-.14c.1-.17.06-.635-.3-1.603zm-3.12-.9h2.77l-.786-1.968c-.226-.55-.48-1.18-.563-1.842h-.083c-.127.663-.34 1.168-.592 1.842l-.744 1.968zm8.01-2.782c0-1.673-.21-1.952-.42-2.167v-.13h4.72c1.955 0 2.784.89 2.784 2.11 0 1.12-.717 1.93-2.375 2.02v.09c1.152.01 1.575.69 1.897 1.65l.155.46c.266.8.407 1.03.675 1.27v.14h-2.292c-.07-.64-.17-1.25-.352-1.98-.196-.71-.45-1.16-1.448-1.16h-1.602v.9c0 1.74.236 1.9.52 2.11v.14h-2.685v-.14c.21-.21.43-.49.43-2.16V71.2zm1.743-1.322v2.615h2.08c.928 0 1.433-.43 1.433-1.31 0-.86-.505-1.3-1.434-1.3h-2.08zm12.998 3.586c-.787-.298-1.938-.31-2.897-.31h-.14v2.486h.422c1.77 0 2.657-.07 4.048-.365h.14v1.35h-6.774v-.14c.21-.212.422-.493.422-2.165v-3.12c0-1.673-.21-1.952-.422-2.167v-.13h6.493v1.35h-.14c-1.392-.29-2.277-.36-4.05-.36h-.14v2.29h.14c.96 0 2.11-.01 2.897-.31h.14v1.61h-.14zm7.655-3.586v4.442c0 1.672.212 1.953.42 2.165v.14h-2.585v-.14c.212-.212.423-.493.423-2.165v-4.442h-.14c-.858 0-1.898.14-2.658.363h-.14v-1.35h7.616v1.34h-.14c-.76-.23-1.8-.37-2.654-.37h-.14zm4.624-.152c.813-.14 1.25-.692 1.25-1.45-.957 0-1.32-.224-1.32-.843 0-.56.35-.85 1.11-.85.884 0 1.233.44 1.233 1.35 0 1.13-.702 1.97-2.273 2.21v-.4zm7.053-1.04c2.024 0 3.29.94 3.3 2.303l-1.53.184c-.07-.94-.647-1.43-1.77-1.43-.943 0-1.52.3-1.52.96 0 1.91 5.158.63 5.158 3.75 0 1.39-1.1 2.39-3.414 2.39-2.06 0-3.5-.66-3.81-2.67l1.59-.18c.21 1.38.94 1.8 2.22 1.8 1.03 0 1.83-.19 1.83-1.01 0-1.83-5.14-.5-5.14-3.78 0-1.36 1.1-2.3 3.1-2.3zm13.067 3.07c0 2.585.76 4.004 2.98 4.004 1.757 0 2.587-1.25 3.008-2.584l1.52.7c-.745 1.717-2.167 3.01-4.668 3.01-2.994 0-4.96-2.15-4.96-5.13s1.966-5.13 4.89-5.13c2.207 0 3.937 1.096 4.553 3.02l-1.882.76c-.366-1.56-.955-2.655-2.628-2.655-2.01 0-2.813 1.41-2.813 4zm15.36 1.448h-3.585v1.165c0 1.673.21 1.954.42 2.165v.14h-2.59v-.14c.21-.21.42-.492.42-2.165v-3.12c0-1.672-.21-1.955-.42-2.166v-.14h2.58v.14c-.21.22-.42.5-.42 2.17v.97H210v-.97c0-1.67-.21-1.95-.42-2.16v-.14h2.583v.14c-.21.21-.42.5-.42 2.17v3.12c0 1.68.21 1.96.42 2.17v.14h-2.584v-.14c.21-.21.42-.49.42-2.16v-1.17zm5.252-1.955c0-1.672-.21-1.955-.423-2.166v-.14h4.723c1.954 0 2.782.89 2.782 2.11 0 1.13-.717 1.93-2.375 2.03v.09c1.152.02 1.575.69 1.897 1.65l.155.46c.268.81.407 1.03.676 1.27v.14h-2.29c-.07-.64-.17-1.25-.35-1.98-.19-.71-.45-1.16-1.45-1.16h-1.6v.9c0 1.74.24 1.9.52 2.11v.14h-2.68v-.14c.21-.21.43-.49.43-2.16v-3.12zm1.743-1.32v2.613h2.07c.93 0 1.43-.437 1.43-1.305 0-.873-.51-1.31-1.44-1.31H217zm8.21 1.32c0-1.672-.21-1.955-.42-2.166v-.14h2.58v.14c-.21.22-.42.5-.42 2.17v3.12c0 1.68.21 1.96.42 2.17v.14h-2.58v-.14c.21-.21.42-.49.42-2.16v-3.12zm7.85-2.517c2.02 0 3.29.942 3.3 2.307l-1.54.183c-.07-.942-.65-1.434-1.77-1.434-.94 0-1.52.296-1.52.954 0 1.91 5.15.635 5.15 3.754 0 1.392-1.1 2.39-3.41 2.39-2.07 0-3.5-.66-3.81-2.67l1.58-.183c.21 1.38.94 1.8 2.22 1.8 1.02 0 1.82-.19 1.82-1.01 0-1.82-5.15-.5-5.15-3.78 0-1.36 1.09-2.3 3.09-2.3zm9.86 1.196v4.44c0 1.674.21 1.955.42 2.166v.14h-2.59v-.14c.21-.21.42-.492.42-2.165v-4.44h-.14c-.86 0-1.9.14-2.66.367h-.14V68.94h7.62v1.354h-.14c-.76-.228-1.8-.368-2.66-.368h-.14zm5.18 1.32c0-1.67-.21-1.954-.42-2.165v-.14h2.58v.14c-.21.22-.43.5-.43 2.17v3.12c0 1.68.21 1.96.42 2.17v.14h-2.58v-.14c.21-.21.42-.49.42-2.16v-3.12zm9.54 3.684h-3.45c-.33.97-.38 1.432-.27 1.602v.14h-2.03v-.14c.39-.31.64-.72 1.23-2.207l2.15-5.467h1.61l2.31 5.467c.69 1.6.92 1.855 1.29 2.207v.14h-2.56v-.14c.1-.17.06-.633-.29-1.603zm-3.12-.9h2.77l-.79-1.967c-.23-.548-.48-1.18-.57-1.84h-.08c-.13.66-.34 1.166-.59 1.84l-.75 1.968zm13.64-2.783c0-1.672-.21-1.955-.42-2.166v-.14h2.13v.14c-.22.22-.43.5-.43 2.17v5.43h-1.08l-3.65-4.62c-.38-.46-.69-1.02-.96-1.6h-.09c.11.68.14 1.38.14 1.96v1.97c0 1.67.25 1.95.5 2.16v.14h-2.22v-.14c.21-.21.42-.49.42-2.16v-3.12c0-1.67-.21-1.95-.42-2.17v-.14h2.2l2.95 3.74c.37.47.69.97.96 1.61h.08c-.11-.67-.14-1.38-.14-1.95v-1.08zm13.84-4.623c3.23 0 5.1 2.29 5.1 5.132 0 2.835-1.87 5.13-5.1 5.13-3.24 0-5.11-2.294-5.11-5.13 0-2.842 1.87-5.132 5.1-5.132zm0 1.125c-2.39 0-2.99 1.72-2.99 4 0 2.27.59 4 2.98 4 2.38 0 2.98-1.73 2.98-4.01s-.59-4.01-2.98-4.01zm7.9 3.49c0-1.67-.21-1.96-.42-2.17v-.14h4.72c1.95 0 2.78.89 2.78 2.11 0 1.12-.72 1.92-2.38 2.02v.08c1.15.01 1.57.69 1.9 1.64l.15.46c.27.8.41 1.03.67 1.27v.14h-2.29c-.07-.65-.17-1.25-.35-1.98-.2-.72-.45-1.17-1.45-1.17h-1.61v.9c0 1.74.24 1.89.52 2.11v.14h-2.68v-.14c.21-.21.42-.49.42-2.17v-3.11zm1.74-1.32v2.61h2.08c.92 0 1.43-.44 1.43-1.31 0-.88-.51-1.31-1.43-1.31h-2.08zm11.63 0v4.44c0 1.67.21 1.95.42 2.16v.14h-2.59v-.14c.21-.21.42-.49.42-2.17v-4.44h-.14c-.86 0-1.9.14-2.66.36h-.14v-1.35h7.61v1.35h-.14c-.76-.23-1.8-.37-2.66-.37h-.14zm10.52 3.28h-3.58v1.16c0 1.67.21 1.95.42 2.16v.14h-2.59v-.14c.21-.21.42-.49.42-2.17v-3.12c0-1.67-.21-1.96-.42-2.17v-.14h2.58v.14c-.2.22-.42.5-.42 2.17v.97h3.59v-.97c0-1.67-.21-1.95-.42-2.17v-.14h2.58v.14c-.21.21-.42.49-.42 2.16v3.12c0 1.67.21 1.95.42 2.16v.14h-2.58v-.14c.2-.21.42-.49.42-2.16V73.2zm8.67 3.68c-2.64 0-4.12-1.83-4.12-4.08s1.48-4.08 4.12-4.08c2.65 0 4.12 1.82 4.12 4.07s-1.48 4.08-4.12 4.08zm0-7.1c-1.77 0-2.15 1.25-2.15 3.02s.38 3.02 2.15 3.02 2.15-1.25 2.15-3.02-.38-3.02-2.15-3.02zm6.5 6.88v-.14c.22-.21.43-.49.43-2.17v-3.12c0-1.67-.21-1.96-.43-2.17v-.14h3.42c2.79 0 4.37 1.35 4.37 3.86s-1.58 3.86-4.37 3.86h-3.42zm2.17-6.75v5.76h1.25c1.77 0 2.41-1 2.41-2.88s-.64-2.88-2.41-2.88h-1.25zM343 76.88c-2.643 0-4.12-1.828-4.12-4.078 0-2.248 1.478-4.077 4.12-4.077 2.64 0 4.115 1.825 4.115 4.073 0 2.25-1.477 4.076-4.118 4.076zm0-7.098c-1.77 0-2.148 1.25-2.148 3.02 0 1.772.375 3.022 2.146 3.022s2.15-1.25 2.15-3.02-.377-3.024-2.15-3.024zm8.682 3.15l-2.037-2.614c-.45-.59-.65-.857-1.125-1.24v-.14h2.613v.14c0 .23.17.606.473 1.013l.496.66c.193.26.38.51.56.81h.06c.197-.29.38-.55.56-.8l.495-.66c.31-.41.48-.79.48-1.01v-.14h1.963v.14c-.49.38-.67.65-1.123 1.24l-1.7 2.22 2.138 2.76c.45.59.644.86 1.14 1.24v.14h-2.617v-.15c0-.21-.19-.64-.516-1.06l-.533-.71c-.2-.26-.41-.52-.59-.84h-.07c-.2.32-.41.58-.61.84l-.53.72c-.33.42-.52.85-.52 1.06v.15h-1.97v-.14c.48-.38.64-.66 1.11-1.234l1.85-2.36zm14.016 1.4c0 1.673.21 1.956.423 2.166v.14h-2.67v-.14c.21-.21.43-.49.43-2.165v-5.23c0-1.673-.21-1.95-.42-2.163v-.14h2.68v.143c-.21.21-.42.49-.42 2.162v5.225zm9.147-3.12c0-1.67-.21-1.954-.425-2.165v-.135h2.14v.137c-.21.21-.424.49-.424 2.17v5.42h-1.08l-3.656-4.63c-.37-.46-.682-1.03-.95-1.61h-.083c.11.68.14 1.38.14 1.95v1.96c0 1.67.252 1.96.504 2.17v.14h-2.22v-.14c.21-.21.42-.49.42-2.17V71.2c0-1.67-.21-1.95-.42-2.162v-.136h2.2l2.95 3.74c.37.46.69.97.96 1.6h.09c-.11-.676-.14-1.375-.14-1.953v-1.08zm7.403-2.51c2.028 0 3.29.94 3.306 2.3l-1.53.184c-.07-.94-.646-1.43-1.77-1.43-.94 0-1.52.29-1.52.95 0 1.916 5.16.636 5.16 3.755 0 1.4-1.1 2.39-3.415 2.39-2.07 0-3.5-.66-3.81-2.67l1.59-.18c.21 1.38.94 1.8 2.22 1.8 1.02 0 1.82-.19 1.82-1.01 0-1.83-5.14-.51-5.14-3.78 0-1.36 1.09-2.3 3.09-2.3zm9.867 1.194v4.435c0 1.68.21 1.96.42 2.17v.14h-2.58v-.14c.205-.21.416-.49.416-2.16V69.9h-.14c-.85 0-1.89.137-2.65.364h-.14v-1.35h7.61v1.35h-.14c-.76-.227-1.8-.365-2.65-.365h-.14zm5.185 1.316c0-1.67-.212-1.955-.423-2.166v-.137h2.582v.14c-.22.21-.43.5-.43 2.17v3.12c0 1.67.21 1.95.42 2.16v.14h-2.59v-.14c.21-.21.42-.49.42-2.17v-3.12zm8.67-1.317v4.433c0 1.672.215 1.955.42 2.165v.14h-2.58v-.14c.21-.21.42-.494.42-2.167V69.9h-.14c-.858 0-1.897.137-2.65.364h-.146v-1.35h7.62v1.35h-.146c-.76-.227-1.798-.365-2.66-.365h-.137zm10.68 1.314c0-1.67-.254-1.96-.51-2.17v-.14h2.28v.13c-.21.21-.418.49-.418 2.17v2.38c0 2.16-1.24 3.25-3.43 3.25-2.18 0-3.416-1.09-3.416-3.25V71.2c0-1.67-.214-1.956-.42-2.167V68.9h2.585v.137c-.21.21-.42.496-.42 2.167v2.32c0 1.46.36 2.27 1.87 2.27 1.52 0 1.89-.804 1.89-2.266v-2.32zm8.2-1.32v4.43c0 1.67.216 1.95.425 2.16v.14h-2.585v-.14c.21-.21.42-.49.42-2.17V69.9h-.14c-.85 0-1.894.137-2.65.364h-.14v-1.35h7.62v1.35h-.145c-.76-.227-1.8-.365-2.66-.365h-.138zm9.964 3.58c-.785-.3-1.938-.31-2.893-.31h-.14v2.48h.43c1.77 0 2.66-.07 4.05-.37h.14v1.35h-6.77v-.14c.21-.21.42-.5.42-2.17V71.2c0-1.67-.2-1.952-.42-2.163v-.14h6.5v1.35h-.14c-1.39-.295-2.27-.36-4.04-.36h-.14v2.285h.15c.96 0 2.11-.013 2.9-.305h.14v1.6h-.145z"/></svg>
