<svg version="1.1" id="Слой_1" xmlns="http://www.w3.org/2000/svg" x="0" y="0" viewBox="0 0 235.2 129.1" style="enable-background:new 0 0 235.2 129.1" xml:space="preserve"><style>.st0{fill:#1d1d1b}</style><path class="st0" d="M47.1 102.3c0 1.9-.3 2-.6 2.3v.2h2.9v-.2c-.2-.2-.5-.5-.5-2.3v-3.4c0-1.8.2-2.1.5-2.3v-.2h-4.8c-2.1 0-3.2.9-3.2 2.4 0 1.3.7 2.1 2.4 2.3v.1c-1.2 0-1.7.7-2.1 1.7l-.1.4c-.3.9-.4 1.1-.7 1.4v.2h2.5c.1-.7.1-1.2.4-2 .2-.7.5-1.2 1.6-1.2h1.7v.6zm-1.9-1.8c-1 0-1.7-.4-1.7-1.5s.7-1.5 1.7-1.5h1.9v3.1h-1.9zm-16.8 1.2-1.6-.8c-.5 1.4-1.3 2.8-3.2 2.8-2.4 0-3.2-1.5-3.2-4.3s.9-4.3 3-4.3c1.8 0 2.4 1.2 2.8 2.9l2-.8c-.7-2.1-2.5-3.3-4.9-3.3-3.2 0-5.3 2.3-5.3 5.5s2.1 5.5 5.3 5.5c2.7 0 4.3-1.4 5.1-3.2zm88.5 2.8c-.1-.2-.1-.7.3-1.7h3.7c.4 1 .4 1.5.3 1.7v.2h2.8v-.2c-.4-.4-.7-.7-1.4-2.4l-2.5-5.9h-1.7l-2.3 5.9c-.6 1.6-.9 2-1.3 2.4v.2h2.2v-.2zm1.4-4.8c.3-.7.5-1.3.6-2h.1c.1.7.4 1.4.6 2l.8 2.1h-3l.9-2.1zm40.8 5.2c2.8 0 4.4-2 4.4-4.4s-1.6-4.4-4.4-4.4c-2.8 0-4.4 2-4.4 4.4s1.6 4.4 4.4 4.4zm0-7.6c1.9 0 2.3 1.3 2.3 3.3s-.4 3.3-2.3 3.3-2.3-1.3-2.3-3.3.4-3.3 2.3-3.3zm-10.9.1h.2v4.8c0 1.8-.2 2.1-.5 2.3v.2h2.8v-.2c-.2-.2-.5-.5-.5-2.3v-4.8h.2c.9 0 2 .2 2.9.4h.2v-1.5h-8.2v1.5h.2c.6-.2 1.8-.4 2.7-.4zm-4.5 5.8h-.2c-1.5.3-2.5.4-4.4.4h-.5v-2.7h.2c1 0 2.3 0 3.1.3h.2v-1.7h-.1c-.8.3-2.1.3-3.1.3h-.2v-2.5h.2c1.9 0 2.9.1 4.4.4h.2v-1.5h-7v.2c.2.2.5.5.5 2.3v3.4c0 1.8-.2 2.1-.5 2.3v.2h7.3v-1.4zm70-7.8c2 0 3-.6 3-1.8 0-.2 0-.4-.1-.5h-1.7v.4c0 .6-.3 1.1-1.3 1.1-.9 0-1.3-.5-1.3-1.1v-.4h-1.7c0 .1-.1.3-.1.5.2 1.1 1.2 1.8 3.2 1.8zm-39.4 7.1c0-1.1-.9-2.1-2.5-2.1v-.1c1.2-.1 2.1-.9 2.1-2 0-1.3-.8-2-2.7-2h-5.1v.2c.2.2.5.5.5 2.3v3.4c0 1.8-.2 2.1-.5 2.3v.2h5.3c2 0 2.9-.8 2.9-2.2zm-5.9-5.1h2.2c1 0 1.5.4 1.5 1.3 0 .8-.5 1.3-1.5 1.3h-2.2v-2.6zm0 6.3v-2.8h2.4c1 0 1.5.5 1.5 1.4 0 .9-.5 1.4-1.5 1.4h-2.4zm-114-6.3h.2v4.8c0 1.8-.2 2.1-.5 2.3v.2h2.8v-.2c-.2-.2-.5-.5-.5-2.3v-4.8h.2c.9 0 2 .2 2.9.4h.2v-1.5h-8.2v1.5h.2c.7-.2 1.8-.4 2.7-.4zm74.2 7.1c-.3-.2-.6-.5-.6-2.3v-.5h2.5c2.3 0 3.4-1.1 3.4-2.7s-1.1-2.7-3.4-2.7h-4.9v.2c.2.2.5.5.5 2.3v3.4c0 1.8-.2 2.1-.5 2.3v.2h2.9v-.2zm-.6-7.1h2.1c1.2 0 1.7.5 1.7 1.6s-.5 1.6-1.7 1.6H128v-3.2zm-89.2 5.1c0-1.1-.9-2.1-2.5-2.1v-.1c1.2-.1 2.1-.9 2.1-2 0-1.3-.8-2-2.7-2h-5.1v.2c.2.2.5.5.5 2.3v3.4c0 1.8-.2 2.1-.5 2.3v.2H36c2 0 2.8-.8 2.8-2.2zm-5.9-5.1h2.2c1 0 1.5.4 1.5 1.3 0 .8-.5 1.3-1.5 1.3h-2.2v-2.6zm0 6.3v-2.8h2.4c1 0 1.5.5 1.5 1.4 0 .9-.5 1.4-1.5 1.4h-2.4zm51.2-.4c-.1 1.1-.2 1.3-.4 1.5v.2h2.7v-.2c-.2-.2-.4-.4-.4-1.5 3.2 0 5.5-1.1 5.5-4s-2.3-4-5.5-4c.1-1 .3-1.3.4-1.5v-.2h-2.7v.2c.2.2.4.4.4 1.5-3.2 0-5.5 1.1-5.5 4s2.3 4 5.5 4zm1.8-7c2.3 0 3.3.8 3.3 3s-1.1 3-3.3 3v-6zm-1.8 0v6c-2.3 0-3.3-.8-3.3-3-.1-2.3 1-3 3.3-3zm100.9 6.1-1.3-.7c-.4 1.1-1.1 2.1-2.6 2.1-1.7 0-2.3-1.2-2.3-3.3 0-2.1.6-3.3 2.1-3.3 1.4 0 1.8.9 2.2 2.1l1.7-.7c-.5-1.7-2.1-2.6-3.9-2.6-2.5 0-4.2 1.8-4.2 4.4 0 2.5 1.7 4.4 4.3 4.4 2.1.1 3.3-1 4-2.4zm4.6-1.5h1.5c1.3 0 1.5.7 1.7 1.5.3.8.4 1.5.5 2.3h2.4v-.2c-.3-.3-.4-.6-.7-1.4l-.3-1c-.4-1.2-1-1.8-2.7-1.8v-.1c.9-.1 1.2-.5 1.6-1.3l.2-.3c.3-.5.5-.6.8-.6.2 0 .4.1.5.2h.1v-2.1c-.2-.1-.4-.1-.7-.1-.9 0-1.5.6-1.8 1.5l-.2.8c-.4 1.2-.8 1.5-1.9 1.5h-1v-1c0-1.8.2-2.1.5-2.3v-.2h-2.8v.2c.2.2.5.5.5 2.3v3.4c0 1.8-.2 2.1-.5 2.3v.2h2.8v-.2c-.2-.2-.5-.5-.5-2.3v-1.3zm-39.1 15h.2c.8-.2 1.9-.4 2.9-.4h.2v4.8c0 1.8-.2 2.1-.5 2.3v.2h2.8v-.2c-.2-.2-.5-.5-.5-2.3v-4.8h.2c.9 0 2 .2 2.9.4h.2v-1.5h-8.2v1.5zm-18.8 0h.2c.8-.2 1.9-.4 2.9-.4h.2v4.8c0 1.8-.2 2.1-.5 2.3v.2h2.8v-.2c-.2-.2-.5-.5-.5-2.3v-4.8h.2c.9 0 2 .2 2.9.4h.2v-1.5h-8.2v1.5zm16-1.3c.1.3-.1.7-.7 1.9l-.4.8c-.3.6-.6 1.2-.8 2h-.1c-.2-.7-.5-1.3-.9-2l-.4-.8c-.6-1.2-.8-1.6-.7-1.9v-.2H141v.2c.4.3.6.7 1.3 1.9l2.3 4.3c-.2.4-.7.7-1.3.7-.4 0-.8-.1-1.1-.3l-.6 1.5c.3.2.9.4 1.6.4 1.3 0 2.1-.8 2.9-2.3l2.3-4.3c.7-1.2.8-1.6 1.2-1.9v-.2h-2.1v.2zm56.5-16.4v4c0 1.8-.2 2.1-.5 2.3v.2h2.8v-.2c-.2-.2-.5-.5-.5-2.3v-3.4c0-1.8.2-2.1.5-2.3v-.2h-2.2l-3.1 4.6c-.4.6-.7 1.1-1.1 1.9h-.1c.1-.8.1-1.4.1-2.2v-1.8c0-1.8.2-2.1.5-2.3v-.2h-2.8v.2c.2.2.5.5.5 2.3v3.4c0 1.8-.2 2.1-.5 2.3v.2h2.2l3.1-4.6c.4-.6.7-1.1 1.1-1.9zm11.5 0v4c0 1.8-.2 2.1-.5 2.3v.2h2.8v-.2c-.2-.2-.5-.5-.5-2.3v-3.4c0-1.8.2-2.1.5-2.3v-.2h-2.2l-3.1 4.6c-.4.6-.7 1.1-1.1 1.9h-.1c.1-.8.1-1.4.1-2.2v-1.8c0-1.8.2-2.1.5-2.3v-.2h-2.8v.2c.2.2.5.5.5 2.3v3.4c0 1.8-.2 2.1-.5 2.3v.2h2.2l3.1-4.6c.4-.6.8-1.1 1.1-1.9zM81.9 119.1c-.4.6-.7 1.1-1.1 1.9h-.1c.1-.8.1-1.4.1-2.2V117c0-1.8.2-2.1.5-2.3v-.2h-2.8v.2c.2.2.5.5.5 2.3v3.4c0 1.8-.2 2.1-.5 2.3v.2h2.2l3.1-4.6c.4-.6.7-1.1 1.1-1.9h.1c-.1.8-.1 1.4-.1 2.2v1.8c0 1.8-.2 2.1-.5 2.3v.2h2.8v-.2c-.2-.2-.5-.5-.5-2.3V117c0-1.8.2-2.1.5-2.3v-.2H85l-3.1 4.6zm13.9-4.5c.2.2.5.5.5 2.3v1h-3.9v-1c0-1.8.2-2.1.5-2.3v-.2H90v.2c.2.2.5.5.5 2.3v3.4c0 1.8-.2 2.1-.5 2.3v.2h2.8v-.2c-.2-.2-.5-.5-.5-2.3V119h3.9v1.3c0 1.8-.2 2.1-.5 2.3v.2h2.8v-.2c-.2-.2-.5-.5-.5-2.3V117c0-1.8.2-2.1.5-2.3v-.2h-2.8v.1zm-24.1-13.3H77v-1.4h-5.3v1.4zm-1.9-.8c0-2.4-1.6-4.4-4.4-4.4-2.8 0-4.4 2-4.4 4.4s1.6 4.4 4.4 4.4c2.8 0 4.4-2 4.4-4.4zm-4.5 3.3c-1.9 0-2.3-1.3-2.3-3.3s.4-3.3 2.3-3.3 2.3 1.3 2.3 3.3-.4 3.3-2.3 3.3zm34.6-1.6c0 1.8-.2 2.1-.5 2.3v.2h2.8v-.2c-.2-.2-.5-.5-.5-2.3v-3.4c0-1.8.2-2.1.5-2.3v-.2H100l-3.1 4.6c-.4.6-.7 1.1-1.1 1.9h-.1c.1-.8.1-1.4.1-2.2v-1.8c0-1.8.2-2.1.5-2.3v-.2h-2.8v.2c.2.2.5.5.5 2.3v3.4c0 1.8-.2 2.1-.5 2.3v.2h2.2l3.1-4.6c.4-.6.7-1.1 1.1-1.9h.1c-.1.8-.1 1.4-.1 2.2v1.8zm11 13.7h.2c.8-.2 1.9-.4 2.9-.4h.2v4.8c0 1.8-.2 2.1-.5 2.3v.2h2.8v-.2c-.2-.2-.5-.5-.5-2.3v-4.8h.2c.9 0 2 .2 2.9.4h.2v-1.5h-8.2v1.5zm13.6 3.2c-.4.6-.7 1.1-1.1 1.9h-.1c.1-.8.1-1.4.1-2.2V117c0-1.8.2-2.1.5-2.3v-.2h-2.8v.2c.2.2.5.5.5 2.3v3.4c0 1.8-.2 2.1-.5 2.3v.2h2.2l3.1-4.6c.4-.6.7-1.1 1.1-1.9h.1c-.1.8-.1 1.4-.1 2.2v1.8c0 1.8-.2 2.1-.5 2.3v.2h2.8v-.2c-.2-.2-.5-.5-.5-2.3V117c0-1.8.2-2.1.5-2.3v-.2h-2.2l-3.1 4.6zm-18.8 2.8c-1.7 0-2.3-1.2-2.3-3.3 0-2.1.6-3.3 2.1-3.3 1.4 0 1.8.9 2.2 2.1l1.7-.7c-.5-1.7-2.1-2.6-3.9-2.6-2.5 0-4.2 1.8-4.2 4.4 0 2.5 1.7 4.4 4.3 4.4 2.1 0 3.3-1.1 4-2.6l-1.3-.7c-.4 1.3-1.1 2.3-2.6 2.3zm4.5-17.4v.2h2.8v-.2c-.2-.2-.5-.5-.5-2.3v-3.4c0-1.8.2-2.1.5-2.3v-.2h-7.1v.2c.2.2.5.7.5 1.8 0 1.3-.1 4.9-1.7 4.9h-.3v1.7c.2.1.5.1.8.1 2.1 0 2.6-2.7 2.6-6.7v-.8h2.9v4.8c-.1 1.7-.3 2-.5 2.2zM101.5 61.5h2.6l-6.6-15.7H95l-6.6 15.7h2.5l1.4-3.4h7.8l1.4 3.4zM93 56.2l3.1-7.8 3.2 7.8H93zm54.9-3.3c0-4.6-3.4-7.4-7.7-7.4s-7.7 2.8-7.7 7.4c0 2.8 1.4 5.4 3.9 6.8l-3.6-.3v2h6.3v-1.8c-2.5-1.4-4.3-3.9-4.3-6.8 0-3 2-5.3 5.3-5.3s5.3 2.4 5.3 5.3-1.8 5.3-4.3 6.8v1.8h6.3v-2l-3.6.3c2.8-1.4 4.1-3.9 4.1-6.8zM137 70.2l.8.8 1.9-.1c-1.3 1.1-2.3 2-3.3 2.8-1.8 1.2-3.9 2-6.8 2-5.1 0-8.2-2.4-10.1-4.3V36.8h11.2l1.5 1.5h1.4V37l-1.1-1.2 1.1-1.1v-1.4h-1.4l-1.5 1.5h-11.2v-7.2c2.8-.5 5-2.9 5-5.8 0-3-2.2-5.3-5-5.8V8.8l1.4-1.4V6.1h-1.4l-1.1 1.2-1.2-1.2h-1.4v1.4l1.4 1.4V16c-2.8.5-5 2.9-5 5.8 0 3 2.2 5.3 5 5.8v7.2H106l-1.5-1.5h-1.4v1.4l1.1 1.1-1.1 1.2v1.4h1.4l1.5-1.5h11.2v34.6c-1.9 1.8-5.1 4.3-10.1 4.3-2.9 0-5.1-.9-6.8-2-1.1-.7-2-1.7-3.3-2.8l1.9.1.8-.8-.8-.8H94v4.7l.9.9.9-.9-.1-1.8c1.3 1.6 2.4 2.4 3.9 3.4 2 1.2 4.4 2 7.5 2 3.2 0 7.1-1 10.1-3.7v2.5l-1.4 1.4v1.4h1.4l1.2-1.1 1.1 1.1h1.4V78l-1.4-1.4v-2.5c3.1 2.8 6.9 3.7 10.1 3.7 3.1 0 5.5-.8 7.5-2 1.5-1 2.6-1.8 3.9-3.4l-.1 1.8.9.9.9-.9v-4.7h-4.8l-.9.7zm-17.5-52.6c1.8.5 3.1 2.1 3.1 4.1 0 2-1.3 3.6-3.1 4.1v-8.2zm-2.3 8.3a4.2 4.2 0 0 1-3.1-4.1c0-2 1.3-3.6 3.1-4.1v8.2z"/></svg>
