<?xml version="1.0" standalone="no"?>
<!DOCTYPE svg PUBLIC "-//W3C//DTD SVG 20010904//EN"
 "http://www.w3.org/TR/2001/REC-SVG-20010904/DTD/svg10.dtd">
<svg version="1.0" xmlns="http://www.w3.org/2000/svg"
 width="640.000000pt" height="640.000000pt" viewBox="0 0 640.000000 640.000000"
 preserveAspectRatio="xMidYMid meet">
<metadata>
Created by potrace 1.11, written by Peter Selinger 2001-2013
</metadata>
<g transform="translate(0.000000,640.000000) scale(0.100000,-0.100000)"
fill="#000000" stroke="none">
<path d="M3010 5772 c0 -44 4 -52 45 -92 l45 -44 0 -242 0 -241 -46 -13 c-186
-52 -311 -260 -275 -455 29 -155 151 -290 289 -320 l32 -7 0 -244 0 -244 -368
0 -368 0 -49 50 c-44 45 -54 50 -92 50 l-43 0 0 -47 c0 -41 5 -52 37 -85 l37
-38 -37 -38 c-32 -33 -37 -44 -37 -85 l0 -47 43 0 c38 0 48 5 92 50 l49 50
368 0 368 0 0 -1174 0 -1174 -52 -47 c-182 -164 -376 -237 -623 -236 -226 1
-388 72 -580 255 l-70 66 58 -6 c52 -6 61 -4 83 17 30 28 30 40 1 67 -22 21
-33 22 -180 22 l-157 0 0 -163 0 -163 28 -27 28 -27 27 28 c23 24 27 37 27 87
l0 59 83 -81 c213 -206 411 -282 709 -270 156 6 254 29 375 86 85 41 189 107
212 135 25 29 31 17 31 -62 l0 -78 -45 -44 c-41 -40 -45 -48 -45 -92 l0 -48
49 0 c45 0 53 3 77 35 14 19 32 35 38 35 7 0 27 -16 46 -35 28 -29 41 -35 77
-35 l43 0 0 48 c0 44 -4 52 -45 92 l-45 44 0 78 c0 43 2 78 4 78 3 0 36 -23
73 -52 83 -63 220 -129 328 -158 120 -33 338 -39 466 -12 172 35 336 128 472
265 l67 68 0 -59 c0 -51 4 -62 28 -85 l28 -27 27 28 27 28 0 162 0 162 -158 0
c-155 0 -159 -1 -181 -24 l-23 -24 24 -32 c23 -32 23 -32 88 -25 l65 7 -62
-56 c-198 -180 -331 -248 -521 -265 -250 -22 -479 50 -673 213 l-74 62 -3
1177 -2 1177 368 0 368 0 49 -50 c45 -46 53 -50 97 -50 l48 0 0 42 c0 36 -6
48 -40 83 l-41 41 41 47 c35 40 41 52 38 84 -3 37 -4 38 -48 41 -42 3 -48 0
-95 -48 l-49 -50 -368 0 -368 0 0 245 c0 232 1 245 19 245 37 0 159 70 201
116 23 25 56 75 73 112 29 61 32 75 32 167 0 88 -3 107 -28 159 -53 113 -135
189 -244 223 l-53 17 0 241 0 241 45 44 c41 40 45 48 45 92 l0 48 -43 0 c-36
0 -49 -6 -77 -35 -19 -19 -39 -35 -46 -35 -6 0 -24 16 -38 35 -24 32 -32 35
-77 35 l-49 0 0 -48z m90 -1017 c0 -219 -3 -275 -13 -275 -23 0 -104 57 -130
92 -65 84 -76 213 -28 313 15 33 39 70 52 81 31 28 91 64 107 64 9 0 12 -62
12 -275z m222 246 c88 -56 129 -134 129 -247 0 -84 -19 -139 -71 -198 -31 -35
-96 -76 -120 -76 -7 0 -10 91 -10 275 0 219 3 275 13 275 7 0 34 -13 59 -29z"/>
<path d="M4490 3124 c-235 -51 -380 -237 -380 -489 0 -175 75 -332 205 -428
l40 -29 -112 6 -113 7 0 -70 0 -71 205 0 205 0 0 64 0 64 -50 37 c-248 182
-301 526 -108 700 126 113 339 111 471 -4 20 -18 51 -63 69 -99 29 -58 33 -79
36 -158 7 -178 -61 -315 -215 -436 l-64 -51 3 -56 3 -56 208 -3 207 -2 0 70 0
71 -112 -7 -113 -7 53 42 c154 123 225 343 177 549 -63 266 -326 419 -615 356z"/>
<path d="M1430 2594 c-118 -289 -217 -530 -218 -535 -3 -6 29 -9 79 -7 l84 3
45 117 45 118 257 0 256 0 47 -120 47 -120 85 0 c46 0 83 4 81 9 -1 5 -100
245 -218 535 l-215 526 -80 0 -80 0 -215 -526z m400 74 l98 -248 -204 0 c-112
0 -204 2 -204 4 0 6 164 433 185 481 12 27 19 35 23 25 3 -8 49 -126 102 -262z"/>
</g>
</svg>
